 <svg  version="1.0" xmlns="http://www.w3.org/2000/svg"  width="1500.000000pt" height="1500.000000pt" viewBox="0 0 1500.000000 1500.000000"  preserveAspectRatio="xMidYMid meet">  <g transform="translate(0.000000,1500.000000) scale(0.100000,-0.100000)" fill="#ffffff" stroke="none"> <path d="M6310 13909 c-164 -12 -313 -28 -360 -38 -25 -6 -108 -18 -185 -27 -77 -10 -166 -26 -199 -36 -32 -10 -68 -18 -79 -18 -11 0 -34 -4 -51 -10 -17 -5 -57 -16 -88 -25 -181 -49 -297 -84 -313 -96 -5 -3 -29 -10 -52 -14 -24 -4 -45 -11 -49 -16 -3 -5 -14 -9 -26 -9 -11 0 -34 -6 -51 -14 -18 -8 -81 -31 -142 -51 -60 -21 -135 -49 -165 -62 -30 -14 -68 -30 -85 -37 -32 -14 -91 -43 -165 -80 -25 -13 -97 -49 -160 -80 -145 -71 -240 -122 -260 -141 -9 -8 -19 -15 -23 -15 -3 0 -25 -13 -49 -28 -24 -16 -59 -37 -78 -48 -76 -41 -183 -113 -322 -216 -9 -7 -26 -20 -38 -28 -35 -24 -155 -113 -160 -119 -3 -4 -57 -49 -120 -102 -173 -144 -194 -163 -340 -309 -154 -155 -250 -257 -306 -326 -21 -27 -46 -55 -54 -64 -63 -69 -98 -111 -181 -222 -157 -212 -203 -279 -259 -373 -29 -49 -73 -120 -97 -157 -24 -37 -43 -72 -43 -77 0 -6 -4 -11 -10 -11 -5 0 -10 -5 -10 -11 0 -6 -20 -44 -44 -85 -25 -40 -56 -98 -70 -128 -15 -31 -37 -80 -51 -110 -14 -30 -25 -60 -25 -65 0 -6 -4 -11 -9 -11 -5 0 -13 -10 -16 -22 -6 -21 -84 -190 -106 -230 -5 -10 -9 -23 -9 -29 0 -6 -6 -25 -14 -42 -8 -18 -26 -67 -41 -110 -14 -43 -30 -88 -34 -100 -5 -12 -16 -47 -26 -77 -9 -30 -23 -69 -31 -87 -8 -17 -14 -42 -14 -55 0 -13 -4 -28 -9 -33 -6 -6 -14 -28 -20 -50 -5 -22 -17 -65 -26 -95 -21 -70 -43 -161 -55 -224 -5 -26 -13 -62 -19 -80 -5 -17 -19 -94 -30 -171 -12 -77 -26 -167 -32 -200 -6 -33 -15 -107 -20 -165 -5 -58 -13 -150 -19 -205 -11 -125 -12 -761 0 -875 5 -47 13 -133 19 -191 5 -58 14 -133 20 -165 5 -32 20 -124 31 -204 12 -80 26 -159 31 -176 6 -18 14 -54 19 -80 11 -62 34 -153 55 -224 9 -30 21 -75 27 -100 5 -25 14 -49 19 -54 5 -6 9 -19 9 -29 0 -10 6 -31 14 -45 7 -15 37 -101 67 -192 29 -91 59 -176 66 -190 7 -14 13 -31 13 -38 0 -7 4 -20 9 -30 28 -50 101 -210 101 -219 0 -6 6 -16 14 -22 8 -7 18 -26 21 -42 4 -16 11 -29 16 -29 5 0 9 -7 9 -15 0 -14 8 -32 62 -140 64 -127 157 -288 170 -293 4 -2 8 -10 8 -17 0 -8 6 -20 13 -27 7 -7 41 -59 75 -116 34 -56 83 -131 109 -166 27 -35 55 -74 63 -86 46 -68 184 -248 232 -302 30 -35 78 -91 106 -125 165 -199 702 -693 870 -800 15 -10 68 -47 117 -83 132 -96 208 -145 440 -283 11 -7 22 -14 25 -17 25 -25 570 -290 725 -353 40 -17 162 -59 285 -99 36 -11 79 -27 97 -34 17 -8 38 -14 47 -14 9 0 24 -4 34 -9 16 -9 118 -40 202 -61 19 -4 53 -14 75 -20 81 -23 225 -50 405 -74 69 -10 146 -22 173 -28 26 -5 91 -14 145 -19 53 -5 133 -13 177 -18 103 -12 804 -12 915 0 47 5 138 14 202 19 65 5 126 14 137 20 11 5 38 10 61 10 41 0 269 38 390 65 160 36 179 41 186 48 4 4 15 7 25 7 21 0 226 65 251 80 10 5 27 10 39 10 11 0 35 6 52 13 40 17 84 33 167 59 115 36 271 105 600 266 188 92 563 318 716 431 34 26 72 53 84 61 54 37 235 179 300 236 278 245 512 477 625 619 22 27 49 59 61 70 25 24 180 220 203 255 9 14 20 30 26 36 5 6 17 22 25 34 8 12 38 54 67 92 42 56 164 251 218 347 6 11 16 25 23 33 27 33 119 212 255 498 32 69 63 134 68 145 4 11 17 40 27 65 30 71 74 189 82 224 9 35 27 86 47 133 7 17 13 38 13 46 0 8 7 28 15 43 8 16 15 40 15 55 0 14 4 29 9 35 11 11 51 147 85 289 30 123 45 204 66 340 11 77 26 167 31 200 10 56 15 102 38 405 12 146 12 611 1 755 -5 61 -13 169 -19 240 -5 72 -15 143 -20 159 -6 15 -11 46 -11 69 0 62 -56 371 -86 471 -7 26 -14 59 -14 72 0 12 -4 25 -9 28 -4 3 -11 28 -15 55 -4 28 -10 53 -15 55 -5 3 -12 26 -15 51 -4 25 -11 45 -17 45 -5 0 -9 12 -9 28 0 15 -7 40 -15 56 -8 15 -15 36 -15 45 0 9 -7 29 -15 45 -8 15 -15 36 -15 45 0 9 -6 28 -14 43 -8 15 -17 41 -21 59 -7 29 -44 129 -82 219 -8 19 -18 44 -23 55 -13 32 -127 271 -183 385 -77 154 -327 569 -389 645 -4 5 -31 42 -58 80 -64 88 -182 243 -216 281 -14 16 -67 79 -119 139 -99 117 -417 435 -550 551 -44 38 -82 71 -85 74 -3 3 -36 30 -75 60 -38 30 -75 60 -81 66 -11 10 -136 101 -272 197 -168 119 -691 418 -788 450 -11 4 -26 11 -34 16 -27 17 -256 121 -266 121 -3 0 -20 6 -37 14 -18 8 -84 30 -147 50 -63 20 -122 41 -131 46 -9 5 -34 12 -54 16 -21 4 -50 13 -64 20 -14 8 -33 14 -42 14 -9 0 -30 7 -45 15 -16 8 -37 15 -47 15 -9 0 -25 4 -35 10 -9 5 -37 14 -62 19 -25 5 -70 17 -100 26 -96 29 -375 81 -480 90 -36 4 -83 10 -105 16 -39 9 -154 22 -360 39 -121 10 -713 9 -845 -1z m767 -49 c38 -5 122 -14 188 -20 164 -13 296 -31 580 -80 28 -5 77 -15 110 -23 33 -8 96 -23 140 -32 44 -10 97 -24 118 -31 20 -8 48 -14 62 -14 13 0 26 -4 29 -9 3 -4 25 -11 48 -15 23 -4 47 -10 53 -15 5 -4 42 -18 80 -30 39 -12 79 -26 90 -31 11 -4 85 -31 165 -60 261 -94 316 -118 620 -277 204 -107 253 -134 385 -221 72 -47 155 -101 185 -121 57 -37 211 -150 220 -161 3 -3 42 -34 86 -68 45 -34 88 -67 95 -74 8 -7 43 -38 79 -68 156 -132 436 -411 570 -569 30 -35 66 -76 79 -90 91 -100 322 -417 436 -600 28 -45 53 -81 58 -81 4 0 7 -6 7 -14 0 -8 6 -21 13 -28 6 -8 20 -29 31 -48 60 -113 110 -207 156 -295 29 -55 59 -111 66 -125 8 -14 14 -31 14 -37 0 -7 5 -13 10 -13 6 0 10 -7 10 -16 0 -9 7 -28 15 -42 23 -43 53 -114 86 -209 18 -48 36 -92 40 -97 5 -6 9 -17 9 -25 0 -9 7 -29 15 -45 8 -15 15 -33 15 -40 0 -6 6 -23 14 -38 8 -15 17 -40 21 -57 4 -17 11 -33 16 -36 5 -4 9 -16 9 -28 0 -12 6 -34 14 -48 7 -14 16 -43 21 -65 4 -21 10 -43 13 -49 4 -5 13 -35 20 -65 7 -30 16 -71 21 -90 5 -19 16 -71 26 -115 9 -44 23 -102 31 -129 8 -26 14 -63 14 -81 0 -17 5 -45 10 -61 17 -50 54 -316 77 -554 23 -241 23 -724 0 -960 -18 -188 -37 -332 -62 -475 -9 -49 -20 -112 -25 -140 -7 -45 -16 -88 -63 -295 -25 -109 -39 -164 -47 -181 -5 -9 -12 -34 -16 -55 -3 -22 -10 -43 -14 -49 -4 -5 -17 -41 -29 -80 -12 -38 -29 -84 -37 -102 -8 -17 -14 -38 -14 -46 0 -9 -4 -19 -10 -22 -5 -3 -10 -13 -10 -21 0 -8 -8 -34 -19 -57 -10 -23 -31 -76 -45 -117 -15 -41 -33 -88 -41 -105 -7 -16 -23 -52 -35 -80 -24 -57 -69 -146 -162 -325 -108 -207 -127 -240 -216 -375 -47 -71 -101 -155 -121 -185 -36 -54 -179 -250 -191 -260 -3 -3 -30 -36 -60 -75 -30 -38 -57 -72 -60 -75 -3 -3 -30 -34 -60 -70 -199 -237 -559 -578 -825 -780 -60 -46 -116 -90 -124 -98 -12 -12 -171 -118 -351 -233 -41 -26 -80 -52 -86 -56 -5 -4 -26 -16 -45 -27 -19 -10 -65 -35 -104 -56 -38 -21 -122 -64 -185 -96 -63 -33 -117 -62 -120 -66 -3 -3 -18 -10 -33 -13 -15 -4 -27 -11 -27 -16 0 -5 -5 -9 -11 -9 -6 0 -25 -6 -42 -14 -18 -8 -63 -28 -100 -45 -38 -17 -80 -34 -95 -37 -15 -4 -31 -10 -37 -14 -5 -4 -39 -17 -75 -30 -36 -13 -76 -30 -90 -37 -14 -7 -33 -13 -42 -13 -9 0 -19 -4 -22 -9 -4 -5 -24 -12 -46 -16 -22 -4 -42 -11 -46 -16 -3 -5 -13 -9 -22 -9 -9 0 -29 -6 -43 -14 -14 -7 -43 -16 -65 -21 -21 -4 -43 -10 -49 -13 -5 -4 -32 -12 -60 -18 -27 -7 -99 -24 -160 -38 -182 -42 -238 -55 -275 -61 -19 -3 -75 -12 -125 -20 -416 -70 -526 -79 -965 -79 -291 0 -409 3 -525 17 -208 24 -304 37 -345 47 -33 8 -121 22 -241 39 -30 5 -71 13 -90 19 -19 6 -88 22 -154 36 -153 33 -206 46 -226 56 -9 5 -34 12 -54 16 -21 4 -50 13 -64 20 -14 8 -33 14 -42 14 -9 0 -30 7 -45 15 -16 8 -37 15 -46 15 -9 0 -20 5 -23 10 -3 6 -14 10 -23 10 -9 0 -28 6 -42 13 -14 7 -47 21 -75 31 -27 10 -63 24 -80 31 -16 7 -57 22 -90 35 -74 29 -174 73 -240 107 -97 50 -291 151 -345 180 -30 17 -71 39 -90 49 -19 11 -40 25 -48 32 -7 6 -19 12 -27 12 -7 0 -15 3 -17 8 -4 8 -65 52 -73 52 -3 0 -11 5 -18 10 -7 6 -76 52 -154 104 -77 51 -149 100 -158 109 -9 10 -20 17 -23 17 -4 0 -18 10 -32 23 -14 12 -56 47 -95 77 -276 214 -683 609 -857 831 -24 30 -45 56 -49 59 -20 16 -264 354 -314 435 -33 53 -65 102 -70 108 -16 19 -67 99 -91 142 -11 22 -36 67 -54 100 -99 182 -240 474 -280 580 -13 33 -29 74 -36 92 -8 17 -14 37 -14 45 0 8 -4 18 -8 24 -10 10 -68 165 -78 207 -3 15 -10 30 -15 33 -5 3 -9 15 -9 27 0 13 -6 31 -14 42 -7 11 -16 38 -20 60 -5 22 -11 44 -14 50 -7 10 -13 35 -56 225 -14 63 -33 143 -41 177 -8 34 -15 73 -15 87 0 14 -4 35 -10 48 -5 13 -15 57 -20 98 -6 41 -18 120 -26 175 -33 228 -47 420 -51 735 -3 201 -1 356 6 405 6 44 15 132 21 195 12 136 32 292 54 410 9 47 21 112 26 145 6 33 15 73 20 90 5 16 21 84 35 150 36 163 49 215 63 248 7 16 12 36 12 47 0 10 7 31 15 46 8 16 15 36 15 45 0 8 4 19 8 25 5 5 19 41 31 79 23 71 44 126 61 157 6 10 10 23 10 29 0 6 6 25 14 42 7 18 23 59 36 92 47 120 94 219 222 465 108 207 127 240 216 375 47 72 101 155 121 185 42 65 130 183 219 295 66 83 71 89 156 190 116 137 403 428 539 546 45 39 96 83 112 98 17 15 59 49 95 76 36 27 71 55 78 62 20 20 231 174 292 214 170 112 244 157 375 232 63 36 451 232 510 258 46 20 93 37 172 65 40 14 85 32 100 39 16 8 35 15 44 15 8 0 19 4 25 8 5 5 43 19 84 32 41 12 79 27 85 31 5 5 18 9 30 9 11 0 32 6 47 14 15 8 42 17 60 21 18 3 42 10 53 14 25 10 79 24 225 56 63 15 138 32 165 40 28 7 93 20 145 29 52 8 111 18 130 21 19 3 71 10 115 16 44 5 103 14 130 20 28 5 117 14 199 19 82 5 151 12 154 15 10 9 569 5 639 -5z"/> <path d="M6574 13454 c-12 -5 -7 -343 6 -359 5 -6 54 -9 115 -9 109 2 132 10 120 42 -3 8 -5 18 -5 22 0 5 -37 10 -82 12 -83 3 -83 3 -86 31 -5 45 14 59 70 52 53 -8 78 4 78 36 0 26 -17 33 -85 33 l-60 1 0 35 0 35 72 0 c78 0 97 9 91 46 -3 23 -6 24 -113 26 -60 1 -115 0 -121 -3z"/> <path d="M6227 13426 c-4 -9 -1 -41 5 -71 6 -33 7 -60 2 -65 -5 -4 -36 -10 -69 -12 l-60 -3 -5 60 c-6 71 -13 85 -44 85 -46 0 -51 -21 -32 -133 9 -56 17 -133 19 -172 l2 -70 44 -3 44 -3 -8 53 c-17 114 -18 112 54 122 77 10 81 6 81 -81 0 -58 2 -63 24 -69 13 -3 34 0 46 6 17 9 21 18 16 38 -8 38 -25 163 -34 252 l-7 75 -36 3 c-26 2 -38 -2 -42 -12z"/> <path d="M7401 13421 c-15 -10 -40 -166 -41 -255 -1 -140 170 -198 250 -85 15 20 30 72 46 157 22 118 22 128 7 140 -50 37 -79 -2 -86 -118 -3 -47 -12 -102 -21 -122 -15 -35 -20 -38 -56 -38 -31 0 -43 5 -56 25 -15 24 -15 33 6 150 14 76 20 129 14 134 -16 15 -48 21 -63 12z"/> <path d="M5727 13359 c-17 -10 -77 -23 -164 -35 -55 -8 -70 -25 -54 -61 10 -22 16 -25 44 -19 78 14 69 31 118 -207 15 -69 26 -81 64 -67 26 10 27 13 21 57 -3 26 -13 69 -20 97 -44 154 -43 156 8 156 51 0 84 48 54 78 -15 15 -47 15 -71 1z"/> <path d="M7922 13308 c-7 -7 -12 -27 -12 -45 0 -18 -6 -52 -13 -75 -8 -24 -24 -75 -36 -115 -29 -93 -26 -117 16 -121 29 -3 33 0 42 35 5 21 13 63 16 94 14 120 48 100 71 -41 8 -51 19 -101 24 -111 8 -14 78 -37 84 -27 1 2 10 39 20 83 10 44 24 96 31 115 47 129 48 140 30 160 -33 36 -75 19 -75 -29 -1 -41 -35 -172 -46 -174 -9 -1 -32 79 -52 187 -7 33 -17 63 -24 68 -19 12 -62 10 -76 -4z"/> <path d="M4930 13143 c-8 -3 -33 -13 -55 -23 -22 -10 -59 -26 -82 -35 -24 -10 -43 -23 -43 -28 0 -11 29 -78 55 -130 8 -16 15 -37 15 -47 0 -10 4 -21 9 -24 5 -3 16 -29 26 -58 25 -79 28 -80 93 -53 31 13 78 31 105 41 36 13 47 22 47 38 0 48 -34 57 -93 26 -20 -11 -50 -20 -66 -20 -25 0 -31 5 -36 30 -9 39 5 56 51 63 61 10 84 48 48 78 -14 11 -24 9 -66 -13 -60 -32 -88 -25 -88 22 0 30 3 31 128 66 8 3 12 16 10 36 -3 34 -23 44 -58 31z"/> <path d="M8502 13132 c-68 -21 -142 -130 -142 -212 0 -45 33 -107 72 -132 33 -22 122 -48 136 -39 14 9 30 53 25 69 -3 7 -22 12 -48 12 -32 0 -52 7 -72 24 -24 21 -28 31 -27 74 2 62 27 107 71 127 30 15 36 15 69 -1 20 -9 38 -23 41 -31 7 -18 20 -16 43 7 29 29 25 47 -18 74 -41 26 -112 39 -150 28z"/> <path d="M8916 12974 c-9 -8 -16 -21 -16 -28 0 -6 -25 -59 -55 -116 -87 -168 -88 -171 -73 -186 7 -7 24 -15 37 -16 25 -3 38 15 70 95 6 15 17 30 25 33 15 6 107 -45 113 -62 2 -6 -12 -35 -32 -64 -20 -29 -34 -58 -32 -64 3 -6 17 -18 31 -26 31 -16 59 -5 64 26 2 10 33 79 69 153 70 143 72 163 20 169 -28 3 -30 0 -66 -90 -12 -31 -50 -38 -71 -14 -6 8 -21 16 -32 18 -40 6 -43 30 -9 80 36 53 39 83 12 98 -27 14 -37 13 -55 -6z"/> <path d="M4435 12922 c-57 -20 -135 -67 -135 -81 0 -9 7 -27 15 -41 32 -57 105 -210 111 -234 8 -33 35 -49 69 -40 35 9 33 46 -6 95 -37 48 -35 73 7 77 25 2 41 -6 81 -42 28 -26 60 -46 72 -46 20 0 41 26 41 52 0 13 -73 65 -113 81 -15 6 -18 13 -13 35 18 71 17 77 -11 110 -29 34 -78 48 -118 34z m58 -83 c19 -27 11 -55 -23 -79 -27 -19 -29 -19 -48 -2 -34 29 -36 57 -6 81 34 27 59 27 77 0z"/> <path d="M6335 12741 c-71 -4 -137 -11 -145 -14 -8 -4 -53 -11 -100 -17 -47 -6 -121 -17 -165 -26 -44 -8 -105 -19 -135 -25 -30 -5 -64 -13 -75 -18 -11 -5 -42 -13 -70 -19 -82 -17 -139 -33 -150 -41 -5 -5 -27 -12 -49 -15 -21 -4 -46 -11 -55 -16 -9 -4 -47 -17 -86 -29 -134 -39 -180 -54 -190 -61 -5 -4 -32 -15 -60 -24 -64 -23 -198 -86 -205 -97 -3 -4 -18 -11 -33 -14 -15 -4 -27 -11 -27 -16 0 -5 -5 -9 -11 -9 -10 0 -210 -97 -249 -120 -8 -5 -50 -31 -94 -57 -43 -27 -88 -55 -101 -63 -13 -8 -45 -28 -72 -44 -40 -25 -183 -125 -218 -153 -5 -5 -48 -37 -95 -73 -248 -189 -542 -480 -740 -735 -30 -38 -63 -79 -72 -89 -10 -11 -30 -38 -45 -60 -15 -23 -30 -43 -33 -46 -3 -3 -27 -38 -53 -77 -26 -40 -68 -106 -94 -145 -27 -40 -52 -80 -58 -90 -42 -71 -101 -175 -104 -183 -2 -5 -45 -95 -96 -200 -90 -182 -146 -325 -195 -485 -12 -41 -26 -82 -30 -91 -5 -9 -12 -34 -16 -55 -3 -22 -10 -43 -14 -49 -4 -5 -11 -26 -14 -45 -4 -19 -11 -44 -16 -55 -5 -11 -14 -42 -20 -70 -6 -27 -18 -77 -26 -110 -65 -271 -94 -562 -94 -955 1 -418 18 -606 86 -940 9 -41 20 -86 24 -100 5 -14 12 -43 16 -65 4 -22 10 -44 14 -50 4 -5 11 -28 15 -50 4 -22 10 -44 15 -50 4 -5 11 -27 14 -49 4 -21 11 -46 16 -55 4 -9 18 -50 30 -91 51 -169 108 -307 216 -525 133 -270 163 -324 231 -425 27 -41 75 -113 105 -160 62 -96 203 -277 342 -440 137 -160 417 -426 576 -545 36 -27 67 -52 70 -55 11 -13 130 -99 195 -141 103 -67 128 -83 147 -94 9 -5 73 -45 143 -88 69 -42 128 -77 131 -77 3 0 38 -16 78 -35 40 -19 78 -35 85 -35 6 0 11 -4 11 -9 0 -5 12 -12 27 -16 15 -3 30 -10 33 -14 16 -24 290 -134 450 -181 41 -12 82 -26 91 -30 9 -5 34 -12 55 -15 22 -4 48 -10 59 -15 20 -9 49 -18 155 -46 101 -27 175 -45 205 -50 17 -3 68 -11 115 -19 258 -44 384 -53 750 -53 365 0 583 14 740 49 25 5 74 13 110 18 81 12 160 29 180 40 9 5 36 12 60 16 25 4 50 11 55 15 6 4 29 11 52 15 24 4 45 10 48 15 3 4 26 11 51 15 26 4 54 10 63 15 9 4 57 20 106 35 82 25 189 63 240 85 11 5 41 18 67 29 26 12 52 21 57 21 6 0 11 4 11 9 0 5 12 12 27 16 15 3 30 10 33 13 5 7 15 12 175 87 118 55 330 180 365 215 9 9 45 30 70 41 13 5 27 13 30 17 3 4 32 25 65 47 55 36 189 139 305 233 209 171 467 439 660 687 30 39 58 75 63 80 103 129 307 455 381 610 27 55 75 154 107 220 63 129 107 241 158 400 17 55 36 108 41 117 5 9 13 36 16 59 4 24 13 54 21 68 7 14 13 33 13 42 0 9 7 33 15 52 19 46 19 76 0 84 -26 9 -54 -26 -60 -76 -3 -25 -10 -54 -16 -64 -5 -9 -12 -38 -16 -62 -3 -25 -10 -48 -14 -51 -5 -3 -9 -13 -9 -22 0 -9 -7 -30 -15 -46 -8 -15 -15 -33 -15 -38 0 -6 -6 -24 -14 -41 -7 -18 -30 -79 -51 -137 -50 -141 -112 -293 -135 -330 -5 -8 -33 -62 -62 -120 -28 -58 -83 -156 -120 -218 -37 -62 -68 -117 -68 -122 0 -5 -6 -15 -13 -22 -7 -7 -24 -31 -37 -53 -13 -22 -28 -44 -32 -50 -5 -5 -59 -78 -121 -162 -61 -83 -137 -180 -167 -214 -189 -217 -306 -335 -475 -484 -44 -38 -89 -78 -100 -88 -22 -21 -47 -40 -120 -94 -27 -21 -54 -41 -60 -45 -51 -39 -216 -158 -220 -158 -2 0 -23 -13 -47 -29 -24 -15 -72 -44 -108 -63 -36 -19 -94 -53 -130 -74 -102 -61 -365 -188 -455 -219 -27 -9 -59 -21 -70 -26 -11 -5 -38 -15 -60 -22 -131 -46 -171 -60 -180 -67 -5 -4 -26 -11 -45 -14 -19 -4 -44 -11 -55 -16 -11 -4 -40 -13 -65 -20 -25 -6 -70 -18 -100 -26 -192 -52 -292 -72 -409 -85 -58 -6 -124 -15 -146 -20 -39 -10 -439 -33 -565 -33 -111 0 -528 21 -537 27 -6 4 -71 13 -145 22 -128 15 -192 27 -333 62 -33 8 -82 20 -110 26 -27 7 -54 15 -60 18 -5 4 -26 10 -45 14 -49 10 -129 35 -167 51 -17 8 -36 14 -42 14 -6 0 -19 4 -29 9 -9 5 -75 31 -147 56 -71 26 -150 56 -175 67 -88 38 -296 144 -366 185 -39 24 -74 43 -77 43 -12 0 -214 125 -267 165 -30 23 -86 63 -125 90 -38 26 -72 51 -75 54 -3 4 -17 14 -33 24 -34 22 -159 129 -292 251 -137 126 -184 174 -330 341 -39 44 -85 97 -104 117 -19 21 -45 55 -59 75 -14 21 -31 43 -36 49 -6 6 -18 22 -26 34 -8 12 -46 66 -85 119 -85 119 -87 121 -225 361 -81 140 -200 386 -235 485 -10 28 -24 64 -31 82 -8 17 -14 35 -14 41 0 5 -7 23 -15 38 -8 16 -15 37 -15 46 0 9 -4 20 -10 23 -5 3 -10 14 -10 23 0 9 -7 30 -15 46 -8 15 -15 33 -15 40 0 6 -6 23 -13 37 -8 14 -17 45 -21 69 -4 24 -10 48 -14 54 -4 6 -12 34 -19 61 -6 28 -18 79 -27 115 -19 79 -52 263 -61 345 -3 33 -12 96 -20 140 -13 76 -29 370 -29 540 0 121 20 521 27 532 3 5 13 65 22 134 18 142 37 256 61 349 9 36 21 88 27 115 7 28 15 55 18 60 4 6 10 26 14 45 7 39 30 109 51 157 8 17 14 35 14 41 0 5 7 23 15 38 8 16 15 37 15 46 0 9 5 20 10 23 6 3 10 13 10 22 0 8 6 29 14 46 7 18 21 55 31 82 37 105 151 342 222 461 24 39 43 74 43 77 0 14 130 220 195 309 38 54 95 132 125 174 30 42 69 91 85 108 17 18 61 68 100 112 115 130 166 184 250 265 145 139 309 280 400 344 90 63 229 165 252 185 7 5 14 10 17 10 3 0 25 14 49 30 25 17 48 30 52 30 4 0 55 28 114 63 58 35 124 72 146 83 22 10 42 21 45 24 7 7 183 93 240 118 25 11 122 47 215 82 94 34 179 66 190 70 54 22 112 40 125 40 8 0 27 6 41 14 14 7 47 16 72 20 26 4 49 11 52 17 4 5 20 9 36 9 17 0 40 5 52 12 12 7 51 15 87 19 91 8 295 37 355 50 42 9 426 31 560 32 106 1 535 -24 575 -32 52 -12 251 -41 325 -47 47 -5 76 -11 204 -48 29 -9 62 -16 72 -16 10 0 20 -4 23 -9 4 -5 25 -12 49 -16 23 -4 47 -11 52 -15 6 -4 25 -11 43 -15 18 -4 45 -13 60 -21 15 -8 33 -14 40 -14 7 0 20 -4 30 -9 9 -5 76 -30 147 -56 139 -50 167 -62 285 -120 152 -75 258 -132 366 -198 62 -37 117 -67 123 -67 6 0 11 -3 11 -8 0 -4 20 -18 45 -32 25 -14 45 -27 45 -30 0 -3 17 -16 38 -30 20 -14 42 -29 47 -33 6 -4 51 -37 100 -73 83 -60 141 -104 169 -129 6 -5 47 -41 91 -80 169 -148 263 -245 477 -486 71 -79 68 -76 183 -234 52 -71 98 -134 102 -140 5 -5 20 -28 33 -50 13 -22 28 -41 32 -43 4 -2 8 -8 8 -14 0 -5 35 -69 78 -142 43 -72 94 -162 113 -201 19 -38 36 -72 39 -75 19 -19 108 -228 165 -390 21 -58 44 -119 51 -137 8 -17 14 -35 14 -41 0 -5 7 -23 15 -38 8 -16 15 -37 15 -46 0 -9 5 -20 10 -23 6 -3 10 -19 10 -35 0 -30 25 -104 42 -127 5 -6 16 -9 24 -6 18 7 18 60 -1 97 -8 15 -15 35 -15 43 0 16 -83 271 -126 388 -24 65 -53 127 -194 420 -30 61 -77 148 -105 195 -106 173 -253 396 -278 422 -7 7 -39 47 -71 88 -139 180 -455 514 -596 631 -36 30 -67 57 -70 60 -3 3 -81 63 -175 133 -93 69 -176 131 -182 136 -7 6 -23 15 -35 20 -24 10 -59 31 -68 40 -30 30 -227 146 -345 202 -131 63 -190 93 -195 99 -3 4 -16 10 -30 14 -14 4 -27 10 -30 14 -8 9 -70 41 -82 41 -5 0 -24 6 -41 14 -84 38 -131 55 -267 96 -41 12 -84 26 -95 31 -11 5 -38 13 -60 18 -65 16 -129 36 -140 42 -5 4 -30 10 -55 13 -25 4 -54 11 -65 16 -11 5 -47 14 -80 20 -33 6 -94 17 -135 25 -41 8 -113 19 -160 25 -47 6 -101 15 -120 21 -44 12 -759 20 -935 10z"/> <path d="M9450 12640 c-25 -22 -89 -69 -142 -105 -54 -36 -100 -70 -104 -76 -8 -13 23 -59 40 -59 7 0 30 14 51 30 l38 30 51 -29 c41 -24 52 -36 54 -60 2 -17 -1 -39 -7 -49 -12 -23 3 -47 36 -56 30 -9 38 10 57 129 8 55 22 131 30 170 15 68 15 70 -6 92 -30 32 -46 29 -98 -17z m25 -122 c-4 -24 -10 -47 -15 -51 -12 -13 -60 15 -60 36 0 22 37 56 63 57 16 0 18 -5 12 -42z"/> <path d="M3933 12649 c-54 -26 -103 -98 -103 -149 0 -54 47 -139 98 -177 78 -59 169 -41 246 46 26 28 33 115 14 161 -33 78 -113 140 -180 140 -18 0 -52 -9 -75 -21z m136 -87 c37 -32 61 -94 52 -131 -8 -27 -63 -71 -90 -71 -24 0 -78 36 -96 64 -9 14 -19 43 -22 64 -4 31 0 44 22 70 36 43 88 44 134 4z"/> <path d="M9853 12415 c-51 -73 -134 -180 -167 -215 -41 -45 -44 -60 -17 -84 28 -26 52 -13 84 44 22 39 34 50 52 50 38 0 43 -41 16 -118 -21 -61 -21 -65 -5 -83 42 -47 84 -12 84 71 0 65 15 90 56 90 32 0 84 56 84 90 0 14 -8 37 -18 53 -23 34 -88 93 -124 113 -25 13 -28 12 -45 -11z m88 -115 c28 -37 16 -70 -25 -70 -32 0 -76 23 -76 41 0 5 7 21 16 35 21 32 60 29 85 -6z"/> <path d="M3437 12299 l-27 -21 22 -28 c13 -15 51 -61 84 -102 34 -41 74 -94 89 -117 31 -46 53 -51 81 -20 10 12 47 41 82 66 34 25 62 49 62 53 0 5 -10 21 -23 36 l-23 27 -52 -47 c-29 -25 -59 -46 -67 -46 -8 0 -52 50 -97 110 -46 61 -87 110 -93 110 -5 0 -22 -10 -38 -21z"/> <path d="M10208 12119 c-24 -26 -23 -35 12 -61 53 -39 49 -48 -60 -156 -55 -54 -100 -103 -100 -109 0 -13 44 -43 64 -43 8 0 24 12 36 27 20 25 63 76 134 158 l26 30 30 -32 c36 -40 76 -44 89 -10 8 19 -4 34 -93 119 -55 53 -105 97 -111 97 -5 -1 -18 -9 -27 -20z"/> <path d="M3180 12058 c-52 -33 -121 -100 -118 -114 2 -7 48 -59 103 -116 55 -57 107 -114 116 -127 12 -19 21 -23 40 -18 14 4 30 17 36 29 9 20 5 28 -35 65 l-45 42 32 37 c71 80 64 152 -21 207 -36 23 -66 21 -108 -5z m90 -78 c24 -24 25 -34 3 -71 -25 -42 -42 -44 -80 -7 -40 39 -41 50 -7 77 33 26 58 27 84 1z"/> <path d="M10505 11693 c-49 -47 -107 -97 -127 -110 -49 -33 -49 -58 2 -105 22 -21 52 -56 66 -78 29 -43 57 -51 74 -21 17 33 12 48 -35 92 -25 23 -45 47 -45 54 0 28 80 75 80 48 0 -5 15 -26 34 -48 32 -38 35 -39 60 -26 14 8 26 20 26 26 0 6 -20 31 -46 54 -42 40 -44 45 -31 65 24 35 57 27 95 -24 19 -25 40 -48 47 -52 16 -10 55 19 55 40 -1 17 -143 172 -157 172 -4 -1 -48 -39 -98 -87z"/> <path d="M2844 11735 c-3 -8 4 -39 16 -69 27 -65 22 -91 -18 -82 -15 3 -48 9 -74 12 -44 6 -47 5 -53 -19 -4 -14 -4 -35 0 -46 6 -19 14 -21 94 -21 l87 0 17 -91 c8 -51 20 -96 26 -102 13 -13 71 10 71 28 0 11 -29 101 -45 137 -12 28 19 32 95 12 84 -21 95 -15 91 54 -1 21 -5 22 -95 22 l-94 0 -11 30 c-5 17 -13 57 -17 90 l-7 60 -39 0 c-25 0 -41 -5 -44 -15z"/> <path d="M10765 11309 c-71 -54 -134 -100 -140 -102 -16 -6 15 -55 70 -113 77 -81 148 -89 236 -28 51 35 72 61 89 114 12 36 12 47 -2 84 -22 59 -86 146 -106 145 -10 -1 -75 -46 -147 -100z m151 -7 c17 -11 34 -48 34 -74 0 -53 -80 -128 -137 -128 -20 0 -93 56 -93 70 0 9 168 140 179 140 3 0 11 -4 17 -8z"/> <path d="M2494 11295 c-32 -47 -61 -85 -66 -85 -23 0 -3 -29 39 -56 26 -16 90 -62 142 -101 53 -40 101 -73 108 -73 7 0 26 21 44 48 18 26 44 61 59 77 37 41 42 60 20 80 -28 26 -56 10 -92 -51 -18 -30 -38 -54 -45 -54 -6 0 -25 11 -40 24 -30 27 -31 25 20 89 24 30 27 39 17 57 -15 27 -51 23 -66 -8 -24 -49 -52 -72 -76 -63 -38 14 -34 47 11 96 48 52 52 81 15 95 -14 6 -27 10 -30 10 -2 0 -29 -38 -60 -85z"/> <path d="M5365 8690 c-27 -17 -58 -30 -69 -30 -23 0 -86 -38 -86 -51 0 -6 9 -7 20 -4 13 4 31 0 45 -9 l25 -16 0 -308 0 -307 -25 -37 c-14 -20 -21 -39 -16 -43 6 -3 59 -14 118 -25 179 -34 279 -15 376 71 69 60 92 116 92 219 0 75 -3 90 -26 125 -15 22 -37 50 -50 62 -63 58 -238 96 -269 58 -17 -21 -5 -30 50 -39 156 -25 223 -327 97 -437 -24 -21 -41 -27 -87 -28 -58 -1 -119 20 -121 42 -4 70 0 399 6 416 4 13 2 28 -5 36 -12 14 -10 95 6 273 5 56 4 62 -13 61 -10 0 -40 -13 -68 -29z"/> <path d="M4130 8403 c-76 -26 -155 -94 -191 -164 -27 -53 -26 -174 1 -234 24 -54 94 -114 158 -137 62 -22 187 -23 237 -2 37 15 49 23 86 57 45 41 7 59 -50 23 -32 -20 -53 -26 -100 -26 -140 0 -228 129 -206 304 6 45 14 63 45 96 35 38 40 40 97 40 45 0 64 -5 80 -20 30 -27 47 -84 34 -109 -12 -21 -15 -71 -5 -71 9 0 54 49 54 59 0 4 14 27 30 49 17 23 30 49 30 57 0 19 -60 57 -124 78 -60 21 -116 20 -176 0z"/> <path d="M6241 8409 c-80 -16 -172 -85 -213 -161 -10 -17 -23 -55 -29 -85 -24 -105 34 -219 142 -278 70 -38 190 -47 274 -20 30 9 55 21 55 25 0 5 8 11 18 15 9 3 25 16 34 29 15 20 15 26 4 35 -10 9 -17 8 -28 -1 -36 -33 -82 -48 -147 -48 -57 0 -75 4 -107 26 -43 29 -56 44 -81 89 -21 39 -33 104 -21 111 5 4 73 7 151 8 113 1 148 4 173 18 42 23 60 66 45 110 -21 62 -64 98 -147 123 -54 16 -60 17 -123 4z m61 -48 c55 -13 88 -53 88 -109 0 -46 -25 -59 -120 -65 -47 -3 -94 -7 -105 -9 -17 -2 -21 3 -23 35 -4 43 22 92 69 132 34 28 38 28 91 16z"/> <path d="M7870 8410 c-110 -23 -179 -100 -166 -184 14 -84 77 -133 201 -157 82 -15 110 -31 131 -72 15 -27 14 -33 -2 -68 -17 -39 -17 -39 -74 -39 -90 0 -136 26 -183 103 -27 42 -30 40 -79 -52 -11 -21 -10 -26 12 -40 99 -66 265 -77 345 -22 25 17 50 47 67 81 25 48 27 59 18 92 -17 61 -84 116 -160 132 -60 13 -117 32 -140 49 -20 14 -25 26 -25 62 0 65 19 79 90 70 65 -8 125 -51 125 -90 0 -41 22 -41 57 0 58 68 46 86 -82 126 -64 20 -80 21 -135 9z"/> <path d="M8500 8410 c-25 -4 -77 -13 -117 -19 -39 -7 -77 -11 -85 -10 -45 6 -51 -13 -13 -43 l25 -19 0 -302 c0 -280 -1 -304 -19 -334 -11 -17 -17 -34 -14 -37 4 -3 34 -6 67 -6 34 0 82 -8 108 -17 26 -9 50 -14 53 -11 3 3 -8 28 -25 55 -28 45 -31 56 -28 119 3 67 4 69 28 66 14 -1 62 -3 108 -3 76 0 86 3 135 34 98 63 147 149 147 258 0 134 -72 217 -229 263 -58 17 -70 18 -141 6z m115 -62 c31 -16 75 -60 75 -75 0 -8 7 -24 15 -37 20 -30 30 -136 20 -212 -6 -49 -13 -64 -45 -96 -34 -34 -43 -38 -88 -38 -28 0 -71 9 -97 20 l-46 20 3 210 c2 174 6 213 18 221 17 11 114 2 145 -13z"/> <path d="M9240 8403 c-69 -25 -151 -93 -184 -154 -35 -62 -46 -172 -26 -234 18 -54 82 -119 142 -145 59 -25 190 -32 210 -12 16 16 80 15 153 -3 69 -16 88 -8 65 28 -12 17 -16 72 -20 252 l-5 230 -105 27 c-121 30 -167 33 -230 11z m166 -64 l34 -21 0 -193 c0 -189 -1 -194 -22 -209 -60 -42 -164 -5 -218 76 -33 52 -34 55 -35 158 0 114 9 141 64 187 36 31 129 32 177 2z"/> <path d="M9975 8402 c-94 -40 -129 -70 -179 -149 -23 -37 -26 -53 -26 -128 0 -102 17 -143 83 -201 61 -54 124 -74 222 -73 67 0 88 5 128 27 48 27 88 75 74 88 -4 4 -29 -5 -56 -19 -56 -31 -143 -37 -190 -12 -45 23 -99 93 -116 151 -28 98 -14 177 43 237 33 34 40 37 93 37 42 0 63 -5 83 -21 24 -19 26 -26 26 -95 0 -53 4 -74 13 -74 15 1 97 136 97 161 0 21 -35 41 -118 70 -67 23 -124 23 -177 1z"/> <path d="M10647 8406 c-105 -29 -202 -126 -227 -230 -25 -106 21 -216 118 -277 60 -38 101 -49 185 -49 86 0 154 22 206 67 64 55 30 74 -50 28 -66 -37 -160 -36 -220 4 -46 31 -68 64 -93 141 -10 30 -12 48 -5 55 6 6 57 9 127 7 180 -6 252 24 252 103 0 53 -76 127 -152 149 -65 19 -77 19 -141 2z m115 -57 c24 -13 58 -72 58 -102 0 -40 -33 -53 -152 -60 l-108 -7 0 24 c0 55 55 143 100 159 18 6 78 -2 102 -14z"/> <path d="M4552 8392 c-3 -8 5 -30 17 -50 33 -56 78 -152 165 -352 21 -47 42 -95 49 -108 6 -13 11 -39 11 -59 0 -52 -64 -108 -134 -117 -55 -7 -62 -20 -29 -55 18 -19 28 -22 58 -16 20 4 45 14 56 23 31 26 75 76 75 85 0 5 6 23 14 40 7 18 24 60 36 95 13 34 27 65 31 68 5 3 9 14 9 25 0 11 7 22 15 25 8 4 15 14 15 24 0 10 7 25 15 34 8 8 15 20 15 26 0 7 6 24 14 38 8 15 30 65 47 112 18 46 46 98 61 116 47 54 40 64 -47 64 -67 0 -75 -2 -75 -19 0 -10 7 -24 15 -31 19 -16 19 -74 1 -108 -35 -63 -76 -182 -76 -218 0 -12 -7 -27 -15 -34 -18 -15 -45 -6 -45 16 0 9 -6 28 -13 42 -8 15 -21 43 -30 62 -8 19 -29 65 -46 103 -38 81 -38 101 -6 133 44 44 35 49 -86 49 -84 0 -113 -3 -117 -13z"/> <path d="M6961 8400 c-43 -10 -81 -39 -93 -69 -7 -21 -6 -23 18 -17 36 9 64 -17 64 -61 0 -18 4 -33 9 -33 5 0 30 36 56 80 39 66 45 83 35 95 -13 16 -36 17 -89 5z"/> <path d="M6650 8390 c-13 -8 -12 -12 8 -26 l23 -16 -2 -238 c-1 -131 1 -242 4 -247 8 -13 165 -14 173 -2 3 6 -3 22 -13 37 -15 23 -18 47 -18 172 1 80 2 163 3 185 1 22 1 63 0 90 l-3 50 -80 3 c-44 1 -87 -2 -95 -8z"/> <path d="M7304 8301 c-11 -5 -35 -27 -52 -49 -26 -32 -32 -49 -32 -88 0 -42 5 -55 39 -94 38 -45 39 -45 103 -45 72 0 109 21 140 78 32 60 19 114 -41 171 -24 23 -41 30 -83 33 -29 1 -62 -1 -74 -6z"/> <path d="M10834 5533 c-8 -10 -28 -36 -44 -58 -16 -22 -40 -53 -54 -70 -31 -39 -21 -75 22 -75 24 0 32 7 47 39 10 22 28 50 41 62 l23 21 30 -22 c17 -12 31 -25 31 -30 0 -4 -18 -30 -40 -56 -22 -27 -40 -52 -40 -57 0 -12 47 -30 64 -24 8 3 24 24 35 46 26 51 36 56 66 37 34 -22 32 -37 -15 -91 -41 -48 -49 -72 -28 -93 25 -25 54 -13 76 31 12 24 33 56 46 70 30 33 56 69 56 79 0 4 -19 17 -42 29 -24 12 -89 57 -146 100 -57 44 -105 79 -107 79 -3 0 -12 -8 -21 -17z"/> <path d="M2689 5490 c-96 -29 -171 -132 -154 -210 7 -33 72 -137 99 -159 15 -12 20 -12 41 5 87 70 189 147 218 164 50 30 50 48 3 111 -62 81 -133 112 -207 89z m122 -99 c16 -16 27 -35 24 -43 -3 -7 -29 -29 -58 -48 -29 -19 -63 -45 -77 -57 -34 -31 -56 -29 -75 7 -26 50 -19 78 29 126 37 38 49 44 85 44 34 0 49 -6 72 -29z"/> <path d="M10570 5195 c-10 -12 -10 -25 0 -63 7 -26 17 -51 21 -56 5 -6 9 -19 9 -29 0 -19 -5 -20 -80 -14 -44 4 -87 4 -95 1 -16 -6 -21 -59 -7 -68 5 -3 50 -8 101 -12 50 -4 94 -11 97 -15 3 -5 7 -32 10 -61 10 -99 10 -100 52 -96 36 3 37 4 35 41 -1 21 -10 54 -19 73 -9 19 -14 37 -11 40 7 8 36 8 104 -1 61 -7 62 -7 69 19 12 48 2 54 -91 57 -58 3 -88 8 -94 17 -5 8 -11 41 -15 73 -10 98 -15 109 -46 109 -15 0 -33 -7 -40 -15z"/> <path d="M3043 5153 c-28 -11 -13 -54 32 -95 52 -48 56 -69 16 -97 l-29 -21 -44 51 c-40 46 -47 50 -66 40 -32 -17 -27 -44 19 -89 36 -37 39 -43 27 -61 -22 -36 -49 -37 -72 -5 -12 16 -33 42 -47 59 -24 26 -29 28 -53 17 -14 -6 -26 -19 -26 -28 0 -17 135 -167 155 -172 7 -2 34 19 61 46 67 67 192 172 204 172 20 0 9 26 -28 65 -21 22 -52 59 -71 83 -31 39 -48 47 -78 35z"/> <path d="M10227 4832 c-25 -28 -21 -47 21 -83 20 -18 36 -39 34 -46 -1 -7 -16 -27 -32 -44 -37 -41 -46 -89 -24 -134 23 -49 50 -65 109 -65 47 0 55 4 108 51 31 28 57 59 57 68 0 10 -41 60 -90 112 -50 52 -100 109 -113 126 -25 37 -46 41 -70 15z m151 -207 c30 -34 29 -69 -3 -83 -35 -16 -55 -15 -77 5 -24 21 -23 44 3 77 26 33 49 33 77 1z"/> <path d="M3414 4753 c-14 -16 -56 -63 -92 -105 -37 -43 -72 -78 -79 -78 -6 0 -21 13 -32 29 -28 39 -58 46 -77 16 -12 -18 -13 -28 -4 -44 6 -12 14 -21 18 -21 4 0 45 -36 91 -80 46 -44 87 -80 92 -80 10 0 49 41 49 51 0 4 -16 19 -35 33 -19 15 -35 33 -35 40 0 7 43 55 95 107 52 52 95 102 95 111 0 16 -35 48 -53 48 -4 0 -19 -12 -33 -27z"/> <path d="M9859 4504 c-18 -20 -53 -47 -75 -60 -50 -30 -60 -57 -31 -84 11 -11 24 -20 29 -20 5 0 28 20 51 45 41 42 81 58 89 36 4 -11 103 -151 133 -188 16 -20 26 -23 48 -18 17 5 29 16 33 31 5 19 -6 38 -58 96 -35 40 -86 101 -112 136 -26 34 -53 62 -60 62 -6 0 -28 -16 -47 -36z"/> <path d="M3671 4478 c-6 -29 -12 -66 -13 -83 -2 -21 -9 -31 -23 -33 -42 -7 -72 -24 -88 -51 -31 -53 -23 -78 47 -146 89 -86 96 -87 150 -11 24 34 74 97 110 139 36 43 66 83 66 88 0 6 -10 19 -22 29 -30 24 -48 14 -87 -50 -33 -54 -54 -62 -72 -29 -13 25 -4 100 18 142 18 37 3 57 -43 57 -31 0 -33 -2 -43 -52z m24 -190 c31 -14 33 -50 5 -78 -27 -27 -44 -25 -69 6 -47 59 -7 104 64 72z"/> <path d="M4060 4240 c-6 -11 -15 -58 -20 -103 -5 -45 -13 -94 -18 -108 -6 -14 -12 -54 -14 -89 -3 -59 -1 -65 22 -78 24 -14 29 -12 110 50 47 35 114 81 148 102 47 29 62 44 62 62 0 61 -30 71 -75 24 -35 -37 -45 -37 -100 -5 -53 31 -58 44 -44 101 7 25 10 47 7 49 -2 3 -18 8 -35 11 -25 5 -33 2 -43 -16z m100 -205 c11 -14 10 -20 -11 -40 -13 -12 -35 -26 -48 -30 -23 -7 -24 -6 -17 36 11 71 36 82 76 34z"/> <path d="M9486 4233 c-102 -42 -152 -143 -114 -230 54 -124 174 -178 266 -119 50 32 68 54 82 103 26 86 -28 190 -122 237 -60 30 -61 30 -112 9z m101 -88 c32 -23 63 -78 63 -114 0 -45 -16 -70 -55 -87 -29 -12 -38 -12 -68 1 -78 32 -115 139 -65 192 26 27 91 32 125 8z"/> <path d="M9056 3990 c-18 -19 -18 -20 2 -52 55 -86 56 -90 36 -105 -25 -19 -52 -8 -104 43 -50 48 -83 56 -100 24 -18 -33 -3 -57 61 -95 32 -20 59 -39 59 -43 0 -3 -5 -21 -12 -39 -10 -29 -10 -39 6 -67 34 -63 85 -71 180 -26 91 43 95 50 62 113 -43 81 -71 137 -102 202 -32 66 -56 78 -88 45z m98 -229 c10 -11 16 -31 14 -47 -2 -22 -9 -30 -34 -35 -69 -14 -97 29 -49 76 29 30 46 31 69 6z"/> <path d="M4513 3958 c-9 -24 -43 -94 -75 -157 -32 -63 -58 -122 -58 -132 0 -22 46 -37 68 -22 9 5 23 32 32 59 10 28 24 50 33 52 19 4 117 -47 117 -60 0 -5 -11 -25 -24 -46 -45 -71 -42 -101 9 -105 22 -1 31 4 40 23 7 14 42 85 78 159 36 73 63 140 60 147 -6 16 -46 29 -66 21 -8 -3 -24 -33 -36 -66 -13 -36 -28 -61 -36 -61 -8 0 -35 10 -60 22 -37 18 -45 27 -45 49 0 15 5 31 10 34 6 4 18 23 27 43 9 20 19 40 21 44 4 7 -50 38 -68 38 -5 0 -18 -19 -27 -42z"/> <path d="M8648 3804 c-4 -3 -46 -20 -95 -38 -75 -27 -89 -35 -91 -56 -7 -49 51 -57 110 -16 47 33 88 11 88 -46 0 -20 -9 -26 -61 -41 -56 -16 -60 -19 -57 -45 4 -35 43 -41 89 -13 44 27 55 26 75 -4 21 -32 9 -47 -48 -64 -83 -25 -90 -29 -86 -58 5 -46 28 -49 100 -15 35 18 72 32 80 32 9 0 26 8 39 19 l23 18 -32 74 c-17 41 -47 115 -65 164 -31 81 -51 107 -69 89z"/> <path d="M4984 3773 c-15 -11 -24 -41 -18 -58 4 -10 20 -15 44 -15 22 0 51 -9 71 -23 28 -19 35 -30 37 -64 3 -42 -15 -90 -46 -125 -22 -26 -90 -24 -118 3 -28 27 -69 20 -78 -13 -8 -31 19 -56 85 -78 48 -15 58 -16 96 -3 110 38 174 182 125 283 -9 19 -35 46 -57 62 -40 27 -121 45 -141 31z"/> <path d="M5454 3622 c-5 -4 -16 -34 -23 -67 -13 -61 -34 -137 -53 -190 -6 -16 -13 -47 -15 -67 -5 -33 -2 -38 21 -44 35 -8 54 9 61 55 14 89 27 140 40 151 17 14 29 -24 47 -148 12 -83 13 -84 50 -103 l39 -20 15 37 c9 21 19 58 24 83 7 42 13 62 42 146 6 17 13 48 15 71 4 36 2 42 -18 47 -38 10 -57 -9 -64 -61 -9 -72 -35 -154 -48 -149 -10 3 -46 157 -47 203 0 11 -6 27 -12 36 -15 18 -59 30 -74 20z"/> <path d="M7815 3538 c-3 -13 -1 -43 4 -68 22 -97 39 -166 46 -183 11 -25 -12 -47 -50 -47 -36 0 -59 -20 -53 -46 6 -31 33 -40 80 -25 24 7 77 18 119 25 92 15 99 19 99 56 0 23 -5 31 -26 36 -14 4 -30 2 -37 -5 -17 -17 -45 -13 -55 7 -5 9 -14 51 -21 92 -7 41 -18 98 -24 125 -11 46 -15 50 -44 53 -27 3 -33 -1 -38 -20z"/> <path d="M6032 3500 c-61 -14 -92 -61 -112 -175 -21 -118 -24 -177 -9 -186 19 -12 32 -11 53 4 13 10 19 36 26 116 11 119 30 164 74 169 31 4 54 -12 66 -44 8 -19 -1 -82 -29 -208 -5 -22 -7 -45 -4 -52 5 -13 50 -25 68 -18 21 9 51 257 37 308 -10 36 -66 82 -107 88 -16 3 -45 2 -63 -2z"/> <path d="M7445 3480 c-17 -19 -17 -22 -1 -81 10 -35 14 -65 9 -70 -5 -5 -38 -10 -73 -11 l-65 -3 -5 75 -5 75 -34 0 c-48 0 -59 -22 -42 -82 7 -26 17 -99 21 -161 9 -119 18 -142 56 -142 34 0 44 26 32 89 -11 65 -3 76 64 85 57 7 61 2 68 -79 l5 -60 38 -3 37 -3 0 58 c0 32 -4 74 -10 93 -5 19 -13 77 -16 130 -4 52 -12 98 -18 102 -19 13 -42 9 -61 -12z"/> <path d="M6767 3442 c-22 -4 -32 -40 -16 -59 11 -12 26 -14 80 -9 77 7 92 -3 87 -56 l-3 -33 -60 0 c-67 0 -85 -8 -85 -35 0 -28 18 -35 85 -35 l60 0 0 -35 0 -35 -77 -3 c-80 -3 -92 -10 -81 -51 3 -12 10 -21 17 -22 48 -4 203 4 210 11 11 11 8 342 -4 354 -8 8 -179 14 -213 8z"/> </g> </svg> 