<svg xmlns="http://www.w3.org/2000/svg" version="1.0" preserveAspectRatio="xMidYMid meet" viewBox="106.14 108.3 1135.68 1135.5">  <g transform="translate(0.000000,1500.000000) scale(0.100000,-0.100000)" fill="#ffffff" stroke="none"> <path d="M6310 13909 c-164 -12 -313 -28 -360 -38 -25 -6 -108 -18 -185 -27 -77 -10 -166 -26 -199 -36 -32 -10 -68 -18 -79 -18 -11 0 -34 -4 -51 -10 -17 -5 -57 -16 -88 -25 -181 -49 -297 -84 -313 -96 -5 -3 -29 -10 -52 -14 -24 -4 -45 -11 -49 -16 -3 -5 -14 -9 -26 -9 -11 0 -34 -6 -51 -14 -18 -8 -81 -31 -142 -51 -60 -21 -135 -49 -165 -62 -30 -14 -68 -30 -85 -37 -32 -14 -91 -43 -165 -80 -25 -13 -97 -49 -160 -80 -145 -71 -240 -122 -260 -141 -9 -8 -19 -15 -23 -15 -3 0 -25 -13 -49 -28 -24 -16 -59 -37 -78 -48 -76 -41 -183 -113 -322 -216 -9 -7 -26 -20 -38 -28 -35 -24 -155 -113 -160 -119 -3 -4 -57 -49 -120 -102 -173 -144 -194 -163 -340 -309 -154 -155 -250 -257 -306 -326 -21 -27 -46 -55 -54 -64 -63 -69 -98 -111 -181 -222 -157 -212 -203 -279 -259 -373 -29 -49 -73 -120 -97 -157 -24 -37 -43 -72 -43 -77 0 -6 -4 -11 -10 -11 -5 0 -10 -5 -10 -11 0 -6 -20 -44 -44 -85 -25 -40 -56 -98 -70 -128 -15 -31 -37 -80 -51 -110 -14 -30 -25 -60 -25 -65 0 -6 -4 -11 -9 -11 -5 0 -13 -10 -16 -22 -6 -21 -84 -190 -106 -230 -5 -10 -9 -23 -9 -29 0 -6 -6 -25 -14 -42 -8 -18 -26 -67 -41 -110 -14 -43 -30 -88 -34 -100 -5 -12 -16 -47 -26 -77 -9 -30 -23 -69 -31 -87 -8 -17 -14 -42 -14 -55 0 -13 -4 -28 -9 -33 -6 -6 -14 -28 -20 -50 -5 -22 -17 -65 -26 -95 -21 -70 -43 -161 -55 -224 -5 -26 -13 -62 -19 -80 -5 -17 -19 -94 -30 -171 -12 -77 -26 -167 -32 -200 -6 -33 -15 -107 -20 -165 -5 -58 -13 -150 -19 -205 -11 -125 -12 -761 0 -875 5 -47 13 -133 19 -191 5 -58 14 -133 20 -165 5 -32 20 -124 31 -204 12 -80 26 -159 31 -176 6 -18 14 -54 19 -80 11 -62 34 -153 55 -224 9 -30 21 -75 27 -100 5 -25 14 -49 19 -54 5 -6 9 -19 9 -29 0 -10 6 -31 14 -45 7 -15 37 -101 67 -192 29 -91 59 -176 66 -190 7 -14 13 -31 13 -38 0 -7 4 -20 9 -30 28 -50 101 -210 101 -219 0 -6 6 -16 14 -22 8 -7 18 -26 21 -42 4 -16 11 -29 16 -29 5 0 9 -7 9 -15 0 -14 8 -32 62 -140 64 -127 157 -288 170 -293 4 -2 8 -10 8 -17 0 -8 6 -20 13 -27 7 -7 41 -59 75 -116 34 -56 83 -131 109 -166 27 -35 55 -74 63 -86 42 -62 181 -245 226 -296 28 -33 80 -93 115 -134 104 -122 394 -407 539 -531 160 -137 290 -242 328 -266 15 -10 68 -47 117 -83 132 -96 208 -145 440 -283 11 -7 22 -14 25 -17 25 -25 570 -290 725 -353 40 -17 162 -59 285 -99 36 -11 79 -27 97 -34 17 -8 38 -14 47 -14 9 0 24 -4 34 -9 16 -9 118 -40 202 -61 19 -4 53 -14 75 -20 81 -23 225 -50 405 -74 69 -10 146 -22 173 -28 26 -5 91 -14 145 -19 53 -5 133 -13 177 -18 103 -12 804 -12 915 0 47 5 138 14 202 19 65 5 126 14 137 20 11 5 38 10 61 10 41 0 269 38 390 65 160 36 179 41 186 48 4 4 15 7 25 7 21 0 226 65 251 80 10 5 27 10 39 10 11 0 35 6 52 13 39 17 79 31 179 63 42 13 102 36 135 50 32 14 74 33 93 41 381 168 827 417 1076 602 34 26 72 53 84 61 54 37 235 179 300 236 278 245 512 477 625 619 22 27 49 59 61 70 25 24 180 220 203 255 9 14 20 30 26 36 5 6 17 22 25 34 8 12 38 54 67 92 42 56 164 251 218 347 6 11 16 25 23 33 27 33 119 212 255 498 32 69 63 134 68 145 4 11 17 40 27 65 30 71 74 189 82 224 9 35 27 86 47 133 7 17 13 38 13 46 0 8 7 28 15 43 8 16 15 40 15 55 0 14 4 29 9 35 11 11 51 147 85 289 30 123 45 204 66 340 11 77 26 167 31 200 10 56 15 102 38 405 12 145 12 598 1 750 -24 323 -30 378 -39 404 -6 15 -11 46 -11 69 0 62 -56 371 -86 471 -7 26 -14 59 -14 72 0 12 -4 25 -9 28 -4 3 -11 28 -15 55 -4 28 -10 53 -15 55 -5 3 -12 26 -15 51 -4 25 -11 45 -17 45 -5 0 -9 12 -9 28 0 15 -7 40 -15 56 -8 15 -15 36 -15 45 0 9 -7 29 -15 45 -8 15 -15 36 -15 45 0 9 -6 28 -14 42 -7 14 -16 39 -20 55 -8 33 -49 147 -78 214 -10 25 -23 54 -27 65 -15 34 -130 275 -184 385 -77 154 -327 569 -389 645 -4 5 -31 42 -58 80 -60 83 -182 243 -212 276 -11 13 -64 76 -118 139 -103 121 -420 438 -555 556 -44 38 -82 71 -85 74 -3 3 -36 30 -75 60 -38 30 -75 60 -81 66 -11 10 -136 101 -272 197 -168 119 -691 418 -788 450 -11 4 -26 11 -34 16 -27 17 -256 121 -266 121 -3 0 -20 6 -37 14 -18 8 -84 30 -147 50 -63 20 -122 41 -131 46 -9 5 -34 12 -54 16 -21 4 -50 13 -64 20 -14 8 -33 14 -42 14 -9 0 -30 7 -45 15 -16 8 -37 15 -47 15 -9 0 -25 4 -35 10 -9 5 -37 14 -62 19 -25 5 -70 17 -100 26 -96 29 -375 81 -480 90 -36 4 -83 10 -105 16 -39 9 -154 22 -360 39 -121 10 -713 9 -845 -1z m767 -49 c38 -5 122 -14 188 -20 164 -13 296 -31 580 -80 28 -5 77 -15 110 -23 33 -8 96 -23 140 -32 44 -10 97 -24 118 -31 20 -8 48 -14 62 -14 13 0 26 -4 29 -9 3 -4 25 -11 48 -15 23 -4 47 -10 53 -15 5 -4 42 -18 80 -30 39 -12 77 -25 85 -28 23 -9 157 -58 240 -87 112 -40 284 -114 380 -164 47 -25 130 -68 185 -97 185 -96 240 -128 370 -213 72 -47 155 -101 185 -121 57 -37 211 -150 220 -161 3 -3 42 -34 86 -68 45 -34 88 -67 95 -74 8 -7 43 -38 79 -68 156 -132 436 -411 570 -569 30 -35 66 -76 79 -90 13 -14 66 -82 119 -151 95 -124 107 -140 128 -163 5 -7 45 -66 88 -132 44 -66 95 -145 115 -175 20 -30 39 -56 44 -58 4 -2 7 -10 7 -17 0 -8 6 -20 13 -27 6 -8 20 -29 31 -48 60 -113 110 -207 156 -295 29 -55 59 -111 66 -125 8 -14 14 -31 14 -37 0 -7 5 -13 10 -13 6 0 10 -7 10 -16 0 -9 7 -28 15 -42 22 -41 52 -113 81 -194 28 -77 58 -152 74 -180 6 -10 10 -26 10 -35 0 -10 6 -30 14 -45 8 -15 17 -40 21 -57 4 -17 11 -33 16 -36 5 -4 9 -16 9 -28 0 -12 6 -34 14 -48 7 -14 16 -43 21 -65 4 -21 10 -43 13 -49 4 -5 13 -35 20 -65 7 -30 16 -71 21 -90 5 -19 16 -71 26 -115 9 -44 23 -102 31 -129 8 -26 14 -63 14 -81 0 -17 5 -45 10 -61 17 -50 54 -316 77 -554 23 -241 23 -724 0 -960 -18 -188 -37 -332 -62 -475 -9 -49 -20 -112 -25 -140 -7 -45 -16 -88 -63 -295 -25 -109 -39 -164 -47 -181 -5 -9 -12 -34 -16 -55 -3 -22 -10 -43 -14 -49 -4 -5 -17 -41 -29 -80 -12 -38 -29 -84 -37 -102 -8 -17 -14 -38 -14 -46 0 -9 -4 -19 -10 -22 -5 -3 -10 -13 -10 -21 0 -8 -8 -34 -19 -57 -10 -23 -31 -76 -45 -117 -15 -41 -33 -88 -41 -105 -7 -16 -23 -52 -35 -80 -24 -57 -69 -146 -162 -325 -108 -207 -127 -240 -216 -375 -47 -71 -101 -155 -121 -185 -36 -54 -179 -250 -191 -260 -3 -3 -30 -36 -60 -75 -30 -38 -57 -72 -60 -75 -3 -3 -30 -34 -60 -70 -199 -237 -559 -578 -825 -780 -60 -46 -116 -90 -124 -98 -12 -12 -171 -118 -351 -233 -41 -26 -80 -52 -86 -56 -5 -4 -26 -16 -45 -27 -19 -10 -65 -35 -104 -56 -38 -21 -122 -64 -185 -96 -63 -33 -117 -62 -120 -66 -3 -3 -18 -10 -33 -13 -15 -4 -27 -11 -27 -16 0 -5 -5 -9 -11 -9 -6 0 -25 -6 -42 -14 -18 -8 -63 -28 -100 -45 -38 -17 -80 -34 -95 -37 -15 -4 -31 -10 -37 -14 -5 -4 -39 -17 -75 -30 -36 -13 -76 -30 -90 -37 -14 -7 -33 -13 -42 -13 -9 0 -19 -4 -22 -9 -4 -5 -24 -12 -46 -16 -22 -4 -42 -11 -46 -16 -3 -5 -13 -9 -22 -9 -9 0 -29 -6 -43 -14 -14 -7 -43 -16 -65 -21 -21 -4 -43 -10 -49 -13 -5 -4 -32 -12 -60 -18 -27 -7 -99 -24 -160 -38 -182 -42 -238 -55 -275 -61 -19 -3 -75 -12 -125 -20 -416 -70 -526 -79 -965 -79 -291 0 -409 3 -525 17 -208 24 -304 37 -345 47 -33 8 -121 22 -241 39 -30 5 -71 13 -90 19 -19 6 -88 22 -154 36 -153 33 -206 46 -226 56 -9 5 -34 12 -54 16 -21 4 -50 13 -64 20 -14 8 -33 14 -42 14 -9 0 -30 7 -45 15 -16 8 -37 15 -46 15 -9 0 -20 5 -23 10 -3 6 -14 10 -23 10 -9 0 -28 6 -42 13 -14 7 -47 21 -75 31 -27 10 -63 24 -80 31 -16 7 -57 22 -90 35 -74 29 -174 73 -240 107 -97 50 -291 151 -345 180 -30 17 -71 39 -90 49 -19 11 -40 25 -48 32 -7 6 -19 12 -27 12 -7 0 -15 3 -17 8 -4 8 -65 52 -73 52 -3 0 -11 5 -18 10 -7 6 -76 52 -154 104 -77 51 -149 100 -158 109 -9 10 -20 17 -23 17 -4 0 -18 10 -32 23 -14 12 -56 47 -95 77 -277 215 -682 608 -856 830 -24 30 -46 57 -50 60 -20 16 -264 354 -314 435 -33 53 -65 102 -70 108 -16 19 -67 99 -91 142 -11 22 -36 67 -54 100 -99 182 -240 474 -280 580 -13 33 -29 74 -36 92 -8 17 -14 37 -14 45 0 8 -4 18 -8 24 -10 10 -68 165 -78 207 -3 15 -10 30 -15 33 -5 3 -9 15 -9 27 0 13 -6 31 -14 42 -7 11 -16 38 -20 60 -5 22 -11 44 -14 50 -7 10 -13 35 -56 225 -14 63 -33 143 -41 177 -8 34 -15 73 -15 87 0 14 -4 35 -10 48 -5 13 -15 57 -20 98 -6 41 -18 120 -26 175 -33 228 -47 420 -51 735 -3 201 -1 356 6 405 6 44 15 132 21 195 12 136 32 292 54 410 9 47 21 112 26 145 6 33 15 73 20 90 5 16 21 84 35 150 36 163 49 215 63 248 7 16 12 39 12 52 0 13 4 26 9 30 5 3 12 19 16 36 4 17 13 42 21 57 8 15 14 37 14 49 0 12 4 24 9 28 5 3 13 20 17 37 3 18 10 39 15 48 19 36 39 84 39 93 0 5 6 23 14 40 7 18 23 59 36 92 47 120 94 219 222 465 108 207 127 240 216 375 47 72 101 155 121 185 42 65 130 183 219 295 66 83 71 89 156 190 116 137 403 428 539 546 45 39 96 83 112 98 17 15 59 49 95 76 36 27 71 55 78 62 20 20 231 174 292 214 170 112 244 157 375 232 63 36 451 232 510 258 46 20 93 37 172 65 40 14 85 32 100 39 16 8 35 15 44 15 8 0 19 4 25 8 5 5 43 19 84 32 41 12 79 27 85 31 5 5 18 9 30 9 11 0 32 6 47 14 15 8 42 17 60 21 18 3 42 10 53 14 25 10 79 24 225 56 63 15 138 32 165 40 28 7 93 20 145 29 52 8 111 18 130 21 19 3 71 10 115 16 44 5 103 14 130 20 28 5 117 14 199 19 82 5 151 12 154 15 10 9 569 5 639 -5z"/> <path d="M2364 9768 c-6 -10 51 -67 68 -68 4 0 42 -53 84 -117 42 -65 100 -152 128 -193 l51 -75 -3 -140 c-2 -77 -5 -142 -8 -144 -2 -2 -20 -7 -39 -10 -20 -3 -36 -10 -35 -16 0 -13 319 -14 323 0 1 5 -13 12 -31 16 -19 4 -39 12 -45 18 -13 13 -23 203 -13 255 4 18 25 58 49 88 23 30 51 72 62 94 11 21 23 41 26 44 3 3 24 37 47 76 52 87 70 107 121 130 25 12 41 26 41 37 0 16 -10 17 -112 15 -74 -2 -113 -7 -115 -15 -2 -6 6 -15 19 -18 50 -16 50 -47 -3 -133 -22 -37 -45 -76 -52 -87 -7 -11 -14 -22 -17 -25 -3 -3 -17 -30 -32 -61 -38 -79 -51 -87 -77 -50 -12 16 -21 32 -21 36 0 3 -26 45 -57 93 -32 48 -60 92 -63 97 -3 6 -17 29 -32 52 -16 24 -28 46 -28 50 0 5 -8 18 -18 29 -14 18 -31 22 -114 27 -67 5 -99 3 -104 -5z"/> <path d="M5562 9766 c-3 -6 -1 -11 4 -13 39 -14 60 -32 65 -58 9 -39 11 -593 3 -623 -4 -13 -23 -31 -46 -43 -25 -13 -37 -24 -31 -30 5 -5 119 -10 254 -12 l244 -2 60 33 c79 45 122 86 151 147 29 61 30 104 4 155 -24 47 -63 76 -130 96 -60 18 -64 35 -12 64 58 33 77 65 77 134 0 55 -3 60 -35 88 -67 55 -148 71 -388 72 -124 1 -216 -3 -220 -8z m404 -53 c57 -22 90 -64 99 -127 7 -43 -12 -101 -39 -118 -6 -4 -48 -8 -93 -8 -75 0 -83 -2 -83 -19 0 -20 9 -23 133 -36 49 -6 64 -12 96 -43 83 -79 77 -258 -11 -312 -28 -17 -50 -20 -139 -20 -69 0 -111 4 -122 13 -16 11 -18 33 -17 187 0 96 0 191 0 210 -2 107 2 268 7 284 5 16 12 18 63 13 32 -4 79 -15 106 -24z"/> <path d="M7789 9751 c-34 -35 -37 -68 -8 -105 17 -22 28 -26 69 -26 45 0 50 3 70 35 19 31 21 39 10 66 -27 64 -92 78 -141 30z"/> <path d="M3477 9521 c-52 -24 -114 -88 -138 -140 -13 -31 -19 -66 -19 -120 0 -122 42 -188 160 -256 50 -29 221 -29 265 -1 105 68 148 139 149 246 2 131 -48 210 -168 266 -65 30 -190 33 -249 5z m178 -55 c46 -35 81 -109 102 -213 15 -76 15 -85 -1 -135 -22 -67 -57 -97 -112 -98 -89 0 -157 88 -189 247 -15 73 -15 83 1 128 9 28 26 62 38 78 19 25 26 27 73 24 37 -3 62 -11 88 -31z"/> <path d="M4034 9525 c-3 -8 4 -23 15 -34 20 -20 21 -32 21 -179 0 -187 12 -239 68 -289 33 -31 40 -33 112 -33 78 0 141 20 170 54 7 9 21 16 31 16 15 0 19 -7 19 -35 l0 -35 94 0 c96 0 129 12 82 30 -15 5 -28 20 -32 35 -3 14 -5 126 -3 250 l4 225 -56 0 c-31 0 -69 2 -85 5 -16 3 -35 1 -43 -4 -12 -8 -10 -15 12 -41 27 -31 27 -32 27 -202 0 -190 4 -180 -77 -218 -60 -29 -123 -27 -153 5 -22 23 -24 35 -28 163 -2 75 0 169 6 207 5 39 7 73 3 76 -3 4 -46 9 -94 12 -68 4 -90 2 -93 -8z"/> <path d="M5095 9531 c-42 -13 -85 -42 -85 -56 0 -8 0 -18 0 -22 0 -5 13 -8 29 -8 37 0 41 -5 44 -51 3 -45 23 -56 37 -20 5 14 22 44 37 68 38 58 42 71 31 86 -11 13 -59 15 -93 3z"/> <path d="M6415 9530 c-3 -5 6 -25 20 -46 24 -35 25 -44 25 -179 0 -203 5 -227 53 -275 39 -40 40 -40 116 -40 78 0 100 7 189 60 35 22 42 16 39 -30 -2 -25 -2 -25 96 -28 67 -2 97 1 97 9 0 6 -9 13 -19 16 -11 3 -25 19 -30 35 -14 40 -14 327 0 402 6 32 7 62 2 66 -12 11 -179 19 -194 9 -11 -7 -10 -13 7 -27 39 -31 44 -55 44 -219 0 -179 2 -173 -84 -213 -62 -28 -120 -27 -151 4 -32 33 -39 99 -27 286 6 85 8 158 4 161 -11 11 -181 19 -187 9z"/> <path d="M7280 9520 c-19 -10 -48 -32 -65 -50 -27 -28 -30 -38 -30 -95 0 -57 3 -67 30 -95 41 -43 91 -67 163 -79 70 -11 117 -33 132 -60 18 -34 12 -76 -15 -101 -22 -20 -31 -22 -84 -17 -80 9 -120 33 -150 91 l-24 47 -24 -22 c-12 -13 -23 -27 -23 -32 0 -6 -8 -19 -17 -29 -15 -17 -15 -19 3 -33 58 -45 107 -59 209 -59 111 0 131 8 192 74 30 31 33 41 33 96 0 54 -3 64 -30 91 -34 35 -101 73 -128 73 -38 0 -137 39 -154 60 -22 27 -23 68 -2 98 12 17 25 22 62 22 63 0 112 -27 140 -78 13 -23 29 -42 35 -42 19 0 59 66 55 91 -8 58 -226 93 -308 49z"/> <path d="M8393 9521 c-23 -11 -55 -29 -71 -41 -36 -26 -52 -20 -52 21 l0 29 -94 0 c-90 0 -129 -11 -87 -25 38 -12 44 -64 38 -297 l-5 -218 87 0 c48 0 90 3 94 6 3 4 -3 18 -13 33 -17 23 -19 48 -22 198 -2 156 -1 173 16 192 11 12 28 21 38 21 10 0 29 7 42 16 16 10 41 14 72 12 37 -2 51 -8 67 -30 19 -25 20 -40 17 -200 -1 -95 -3 -189 -4 -208 l-1 -35 93 -3 c100 -3 108 2 72 48 -18 23 -20 42 -20 203 0 170 -1 179 -24 215 -33 53 -67 72 -139 78 -48 4 -71 1 -104 -15z"/> <path d="M9021 9519 c-59 -28 -134 -104 -160 -164 -57 -128 8 -283 146 -345 62 -28 207 -31 268 -5 58 24 105 63 105 86 0 25 -12 24 -62 -7 -55 -35 -149 -44 -201 -19 -55 26 -104 86 -122 149 -9 31 -14 60 -11 65 3 5 68 9 143 8 108 0 147 4 178 17 48 20 55 30 55 80 0 54 -34 101 -94 131 -66 33 -179 35 -245 4z m173 -40 c31 -25 59 -85 50 -111 -11 -35 -44 -44 -154 -44 l-105 1 3 29 c5 41 26 80 64 115 41 38 101 42 142 10z"/> <path d="M9605 9524 c-103 -56 -133 -147 -77 -229 33 -48 89 -81 151 -90 77 -11 121 -27 142 -53 25 -32 24 -73 -3 -107 -20 -26 -25 -27 -85 -22 -74 6 -126 39 -149 93 -19 45 -38 43 -70 -8 -35 -55 -30 -64 61 -105 30 -14 64 -18 135 -17 85 1 100 3 138 28 23 15 52 41 62 59 27 44 26 119 -1 164 -21 33 -101 83 -135 83 -42 0 -127 36 -150 63 -29 34 -30 49 -7 88 15 26 23 29 68 29 62 0 118 -34 140 -85 7 -19 19 -35 25 -35 20 0 71 64 68 85 -2 13 -21 29 -53 45 -65 32 -212 40 -260 14z"/> <path d="M10170 9516 c-76 -40 -111 -109 -91 -176 23 -78 82 -118 201 -140 107 -19 130 -38 130 -104 0 -49 -31 -76 -86 -76 -77 0 -145 39 -169 97 -19 44 -36 42 -69 -9 -37 -57 -33 -65 64 -104 34 -15 68 -19 142 -17 53 0 103 6 110 12 72 58 89 77 99 111 14 46 5 99 -21 133 -25 32 -102 77 -132 77 -13 1 -47 9 -77 19 -88 31 -115 73 -80 130 20 33 21 33 80 29 51 -4 64 -9 94 -38 19 -19 35 -42 35 -52 0 -10 8 -22 17 -25 23 -9 75 54 71 86 -8 64 -225 96 -318 47z"/> <path d="M4770 9524 c0 -4 12 -17 26 -31 l25 -23 -2 -238 -2 -237 91 -3 c100 -3 107 1 72 45 -18 23 -20 41 -20 162 0 75 5 153 11 174 8 30 7 43 -4 60 -9 15 -11 31 -6 51 5 16 6 33 3 38 -6 9 -194 11 -194 2z"/> <path d="M7738 9524 c-4 -3 5 -16 20 -29 l27 -23 0 -194 c0 -106 -2 -213 -5 -238 l-5 -45 93 -3 c50 -1 92 0 92 4 0 4 -9 27 -21 51 -20 41 -21 55 -16 241 3 108 7 206 9 217 3 19 -3 20 -92 23 -53 1 -99 0 -102 -4z"/> <path d="M10675 9124 c-31 -34 -32 -75 -2 -109 50 -59 147 -22 147 56 0 73 -95 107 -145 53z"/> <path d="M9000 7070 c-30 -17 -61 -30 -68 -30 -18 0 -92 -43 -92 -54 0 -4 12 -5 26 -2 14 4 34 4 45 1 19 -6 20 -18 19 -363 0 -196 -1 -364 0 -372 0 -13 17 -16 95 -17 103 -1 111 4 73 45 -23 23 -23 27 -26 356 -1 183 1 357 6 387 14 90 7 94 -78 49z"/> <path d="M3834 7028 c-4 -6 7 -24 25 -40 17 -16 31 -34 31 -39 0 -6 -33 -65 -72 -132 -40 -68 -82 -142 -93 -165 -11 -24 -26 -41 -34 -40 -11 3 -131 183 -158 238 -4 8 -20 34 -35 56 -15 23 -28 46 -28 50 -1 5 -9 18 -18 30 -14 16 -34 22 -87 27 -39 3 -85 9 -102 13 -28 6 -33 4 -33 -13 0 -11 17 -32 39 -48 21 -17 53 -50 71 -75 43 -61 160 -242 160 -248 0 -2 14 -21 30 -42 30 -38 30 -38 30 -168 0 -141 -5 -155 -56 -168 -14 -4 -23 -11 -21 -18 5 -16 299 -16 304 0 2 7 -7 14 -21 18 -51 13 -56 27 -56 173 l0 136 33 41 c38 46 147 210 147 221 0 24 72 111 113 136 33 20 47 35 45 47 -2 10 -11 16 -23 14 -77 -12 -115 -13 -148 -4 -25 7 -39 7 -43 0z"/> <path d="M6785 7031 c-3 -5 -20 -13 -38 -16 -68 -15 -196 -121 -244 -202 -39 -67 -57 -172 -43 -252 7 -36 21 -86 33 -111 27 -59 129 -160 191 -189 113 -52 246 -53 323 0 46 31 58 30 65 -5 3 -17 13 -19 112 -20 73 -1 111 3 113 10 2 7 -7 14 -21 18 -50 12 -56 29 -56 145 0 99 2 109 23 129 13 12 31 22 40 22 9 0 17 6 17 13 0 10 -35 14 -157 16 -87 1 -185 3 -218 4 -54 2 -60 0 -60 -18 0 -18 9 -21 85 -26 125 -9 120 -4 120 -119 0 -93 -1 -98 -25 -114 -41 -27 -146 -32 -202 -11 -125 47 -211 175 -228 341 -7 66 7 165 31 212 18 36 85 99 120 112 39 15 149 12 192 -5 43 -18 72 -51 92 -107 11 -30 11 -46 0 -92 -7 -31 -11 -59 -7 -62 10 -10 55 29 68 59 7 16 32 54 56 85 39 50 42 58 30 76 -18 28 -127 82 -202 101 -65 17 -201 20 -210 6z"/> <path d="M4364 6780 c-56 -22 -110 -69 -152 -133 -25 -37 -27 -49 -27 -136 0 -87 3 -101 27 -143 31 -52 82 -95 148 -123 68 -30 203 -26 257 8 124 79 174 224 123 361 -51 134 -243 219 -376 166z m167 -76 c42 -40 76 -119 90 -214 14 -92 5 -140 -37 -190 -21 -25 -33 -30 -69 -30 -108 0 -188 117 -202 292 -5 56 -2 74 17 110 32 61 46 69 113 65 47 -3 63 -9 88 -33z"/> <path d="M7604 6780 c-56 -22 -110 -69 -152 -133 -25 -37 -27 -49 -27 -136 0 -87 3 -101 27 -143 31 -52 82 -95 148 -123 68 -30 203 -26 257 8 124 79 174 224 123 361 -51 134 -243 219 -376 166z m167 -76 c66 -63 116 -248 90 -336 -19 -65 -55 -98 -107 -98 -107 0 -187 117 -201 292 -5 56 -2 74 17 110 32 61 46 69 113 65 47 -3 63 -9 88 -33z"/> <path d="M8355 6779 c-140 -57 -205 -151 -205 -295 0 -126 37 -185 148 -235 52 -23 195 -30 215 -10 16 16 79 14 149 -5 33 -8 63 -12 66 -9 4 3 -2 29 -12 57 -16 45 -18 78 -15 252 l4 201 -27 13 c-39 18 -152 43 -218 47 -39 3 -70 -2 -105 -16z m173 -59 c17 -11 32 -28 33 -37 4 -89 -5 -361 -12 -375 -13 -24 -49 -32 -107 -23 -39 6 -55 15 -92 55 -95 100 -99 273 -8 368 29 29 37 32 92 32 43 0 71 -6 94 -20z"/> <path d="M9420 6791 c-105 -22 -165 -83 -165 -165 2 -111 51 -148 256 -190 70 -15 104 -102 57 -146 -52 -48 -194 -10 -231 63 -10 20 -25 37 -32 37 -16 0 -51 -42 -60 -71 -9 -29 7 -43 78 -70 76 -29 226 -32 256 -5 10 9 21 16 25 16 10 0 39 31 59 62 11 18 17 48 17 86 0 56 -2 62 -38 94 -41 37 -64 47 -166 75 -114 30 -153 86 -104 148 20 25 25 27 72 20 66 -8 104 -31 127 -77 11 -21 25 -38 33 -38 17 0 42 28 56 65 13 35 4 44 -79 76 -65 25 -112 31 -161 20z"/> <path d="M4890 6773 c0 -8 10 -27 23 -44 20 -28 22 -44 27 -212 6 -203 13 -228 73 -266 25 -15 51 -21 94 -21 68 0 121 19 175 62 41 32 45 30 50 -27 l3 -30 88 -1 c85 -2 112 6 84 23 -35 21 -39 52 -36 284 2 125 2 230 -1 232 -3 3 -43 7 -89 8 -96 4 -107 -4 -72 -52 20 -27 21 -38 19 -200 l-3 -172 -50 -27 c-65 -35 -126 -46 -155 -28 -45 27 -52 68 -48 277 1 121 -1 195 -7 197 -6 1 -47 4 -92 7 -66 3 -83 1 -83 -10z"/> <path d="M5964 6780 c-42 -9 -90 -45 -97 -70 -5 -18 -2 -20 27 -15 27 6 34 3 45 -19 8 -13 11 -36 9 -51 -5 -22 -3 -25 16 -19 11 4 21 7 21 8 2 6 50 97 63 118 13 22 14 29 3 42 -14 17 -36 19 -87 6z"/> <path d="M5647 6774 c-4 -4 5 -21 19 -37 l26 -31 -3 -235 -4 -236 82 -2 c46 -1 85 2 87 6 3 4 -4 25 -15 45 -18 34 -20 52 -16 179 3 78 8 157 12 175 6 25 4 36 -9 45 -14 10 -15 18 -6 41 17 45 0 56 -90 56 -42 0 -80 -3 -83 -6z"/> <path d="M9875 6388 c-77 -44 -49 -158 39 -158 57 0 98 66 75 120 -20 45 -72 62 -114 38z"/> </g> </svg>