<svg xmlns="http://www.w3.org/2000/svg" version="1.0" preserveAspectRatio="xMidYMid meet" viewBox="106.14 108.3 1135.68 1135.5">  <g transform="translate(0.000000,1500.000000) scale(0.100000,-0.100000)" fill="#ffffff" stroke="none"> <path d="M6310 13909 c-164 -12 -313 -28 -360 -38 -25 -6 -108 -18 -185 -27 -77 -10 -166 -26 -199 -36 -32 -10 -68 -18 -79 -18 -11 0 -34 -4 -51 -10 -17 -5 -57 -16 -88 -25 -181 -49 -297 -84 -313 -96 -5 -3 -29 -10 -52 -14 -24 -4 -45 -11 -49 -16 -3 -5 -14 -9 -26 -9 -11 0 -34 -6 -51 -14 -18 -8 -81 -31 -142 -51 -60 -21 -135 -49 -165 -62 -30 -14 -68 -30 -85 -37 -32 -14 -91 -43 -165 -80 -25 -13 -97 -49 -160 -80 -145 -71 -240 -122 -260 -141 -9 -8 -19 -15 -23 -15 -3 0 -25 -13 -49 -28 -24 -16 -59 -37 -78 -48 -76 -41 -183 -113 -322 -216 -9 -7 -26 -20 -38 -28 -35 -24 -155 -113 -160 -119 -3 -4 -57 -49 -120 -102 -173 -144 -194 -163 -340 -309 -154 -155 -250 -257 -306 -326 -21 -27 -46 -55 -54 -64 -63 -69 -98 -111 -181 -222 -157 -212 -203 -279 -259 -373 -29 -49 -73 -120 -97 -157 -24 -37 -43 -72 -43 -77 0 -6 -4 -11 -10 -11 -5 0 -10 -5 -10 -11 0 -6 -20 -44 -44 -85 -25 -40 -56 -98 -70 -128 -15 -31 -37 -80 -51 -110 -14 -30 -25 -60 -25 -65 0 -6 -4 -11 -9 -11 -5 0 -13 -10 -16 -22 -6 -21 -84 -190 -106 -230 -5 -10 -9 -23 -9 -29 0 -6 -6 -25 -14 -42 -8 -18 -26 -67 -41 -110 -14 -43 -30 -88 -34 -100 -5 -12 -16 -47 -26 -77 -9 -30 -23 -69 -31 -87 -8 -17 -14 -42 -14 -55 0 -13 -4 -28 -9 -33 -6 -6 -14 -28 -20 -50 -5 -22 -17 -65 -26 -95 -21 -70 -43 -161 -55 -224 -5 -26 -13 -62 -19 -80 -5 -17 -19 -94 -30 -171 -12 -77 -26 -167 -32 -200 -6 -33 -15 -107 -20 -165 -5 -58 -13 -150 -19 -205 -11 -125 -12 -761 0 -875 5 -47 13 -133 19 -191 5 -58 14 -133 20 -165 5 -32 20 -124 31 -204 12 -80 26 -159 31 -176 6 -18 14 -54 19 -80 11 -62 34 -153 55 -224 9 -30 21 -75 27 -100 5 -25 14 -49 19 -54 5 -6 9 -19 9 -29 0 -10 6 -31 14 -45 7 -15 37 -101 67 -192 29 -91 59 -176 66 -190 7 -14 13 -31 13 -38 0 -7 4 -20 9 -30 28 -50 101 -210 101 -219 0 -6 6 -16 14 -22 8 -7 18 -26 21 -42 4 -16 11 -29 16 -29 5 0 9 -7 9 -15 0 -14 8 -32 62 -140 64 -127 157 -288 170 -293 4 -2 8 -10 8 -17 0 -8 6 -20 13 -27 7 -7 41 -59 75 -116 34 -56 83 -131 109 -166 27 -35 55 -74 63 -86 42 -62 181 -245 226 -296 28 -33 80 -93 115 -134 185 -217 701 -691 867 -797 15 -10 68 -47 117 -83 132 -96 208 -145 440 -283 11 -7 22 -14 25 -17 25 -25 570 -290 725 -353 40 -17 162 -59 285 -99 36 -11 79 -27 97 -34 17 -8 38 -14 47 -14 9 0 24 -4 34 -9 16 -9 118 -40 202 -61 19 -4 53 -14 75 -20 81 -23 225 -50 405 -74 69 -10 146 -22 173 -28 26 -5 91 -14 145 -19 53 -5 133 -13 177 -18 103 -12 804 -12 915 0 47 5 138 14 202 19 65 5 126 14 137 20 11 5 38 10 61 10 41 0 269 38 390 65 160 36 179 41 186 48 4 4 15 7 25 7 21 0 226 65 251 80 10 5 27 10 39 10 11 0 35 6 52 13 39 17 79 31 179 63 42 13 102 36 135 50 32 14 74 33 93 41 381 168 827 417 1076 602 34 26 72 53 84 61 54 37 235 179 300 236 278 245 512 477 625 619 22 27 49 59 61 70 25 24 180 220 203 255 9 14 20 30 26 36 5 6 17 22 25 34 8 12 38 54 67 92 42 56 164 251 218 347 6 11 16 25 23 33 27 33 119 212 255 498 32 69 63 134 68 145 4 11 17 40 27 65 30 71 74 189 82 224 9 35 27 86 47 133 7 17 13 38 13 46 0 8 7 28 15 43 8 16 15 40 15 55 0 14 4 29 9 35 11 11 51 147 85 289 30 123 45 204 66 340 11 77 26 167 31 200 10 56 15 102 38 405 12 146 12 611 1 755 -5 61 -13 169 -19 240 -5 72 -15 143 -20 159 -6 15 -11 46 -11 69 0 62 -56 371 -86 471 -7 26 -14 59 -14 72 0 12 -4 25 -9 28 -4 3 -11 28 -15 55 -4 28 -10 53 -15 55 -5 3 -12 26 -15 51 -4 25 -11 45 -17 45 -5 0 -9 12 -9 28 0 15 -7 40 -15 56 -8 15 -15 36 -15 45 0 9 -7 29 -15 45 -8 15 -15 36 -15 45 0 9 -6 28 -14 43 -8 15 -17 41 -21 59 -7 29 -44 129 -82 219 -8 19 -18 44 -23 55 -13 32 -127 271 -183 385 -77 154 -327 569 -389 645 -4 5 -31 42 -58 80 -64 88 -182 243 -216 281 -14 16 -67 79 -119 139 -99 117 -417 435 -550 551 -44 38 -82 71 -85 74 -3 3 -36 30 -75 60 -38 30 -75 60 -81 66 -11 10 -136 101 -272 197 -168 119 -691 418 -788 450 -11 4 -26 11 -34 16 -27 17 -256 121 -266 121 -3 0 -20 6 -37 14 -18 8 -84 30 -147 50 -63 20 -122 41 -131 46 -9 5 -34 12 -54 16 -21 4 -50 13 -64 20 -14 8 -33 14 -42 14 -9 0 -30 7 -45 15 -16 8 -37 15 -47 15 -9 0 -25 4 -35 10 -9 5 -37 14 -62 19 -25 5 -70 17 -100 26 -96 29 -375 81 -480 90 -36 4 -83 10 -105 16 -39 9 -154 22 -360 39 -121 10 -713 9 -845 -1z m767 -49 c38 -5 122 -14 188 -20 164 -13 296 -31 580 -80 28 -5 77 -15 110 -23 33 -8 96 -23 140 -32 44 -10 97 -24 118 -31 20 -8 48 -14 62 -14 13 0 26 -4 29 -9 3 -4 25 -11 48 -15 23 -4 47 -10 53 -15 5 -4 42 -18 80 -30 39 -12 79 -26 90 -31 11 -4 85 -31 165 -60 261 -94 316 -118 620 -277 204 -107 253 -134 385 -221 72 -47 155 -101 185 -121 57 -37 211 -150 220 -161 3 -3 42 -34 86 -68 45 -34 88 -67 95 -74 8 -7 43 -38 79 -68 156 -132 436 -411 570 -569 30 -35 66 -76 79 -90 91 -100 322 -417 436 -600 28 -45 53 -81 58 -81 4 0 7 -6 7 -14 0 -8 6 -21 13 -28 6 -8 20 -29 31 -48 60 -113 110 -207 156 -295 29 -55 59 -111 66 -125 8 -14 14 -31 14 -37 0 -7 5 -13 10 -13 6 0 10 -7 10 -16 0 -9 7 -28 15 -42 23 -43 53 -114 86 -209 18 -48 36 -92 40 -97 5 -6 9 -17 9 -25 0 -9 7 -29 15 -45 8 -15 15 -33 15 -40 0 -6 6 -23 14 -38 8 -15 17 -40 21 -57 4 -17 11 -33 16 -36 5 -4 9 -16 9 -28 0 -12 6 -34 14 -48 7 -14 16 -43 21 -65 4 -21 10 -43 13 -49 4 -5 13 -35 20 -65 7 -30 16 -71 21 -90 5 -19 16 -71 26 -115 9 -44 23 -102 31 -129 8 -26 14 -63 14 -81 0 -17 5 -45 10 -61 17 -50 54 -316 77 -554 23 -241 23 -724 0 -960 -18 -188 -37 -332 -62 -475 -9 -49 -20 -112 -25 -140 -7 -45 -16 -88 -63 -295 -25 -109 -39 -164 -47 -181 -5 -9 -12 -34 -16 -55 -3 -22 -10 -43 -14 -49 -4 -5 -17 -41 -29 -80 -12 -38 -29 -84 -37 -102 -8 -17 -14 -38 -14 -46 0 -9 -4 -19 -10 -22 -5 -3 -10 -13 -10 -21 0 -8 -8 -34 -19 -57 -10 -23 -31 -76 -45 -117 -15 -41 -33 -88 -41 -105 -7 -16 -23 -52 -35 -80 -24 -57 -69 -146 -162 -325 -108 -207 -127 -240 -216 -375 -47 -71 -101 -155 -121 -185 -36 -54 -179 -250 -191 -260 -3 -3 -30 -36 -60 -75 -30 -38 -57 -72 -60 -75 -3 -3 -30 -34 -60 -70 -199 -237 -559 -578 -825 -780 -60 -46 -116 -90 -124 -98 -12 -12 -171 -118 -351 -233 -41 -26 -80 -52 -86 -56 -5 -4 -26 -16 -45 -27 -19 -10 -65 -35 -104 -56 -38 -21 -122 -64 -185 -96 -63 -33 -117 -62 -120 -66 -3 -3 -18 -10 -33 -13 -15 -4 -27 -11 -27 -16 0 -5 -5 -9 -11 -9 -6 0 -25 -6 -42 -14 -18 -8 -63 -28 -100 -45 -38 -17 -80 -34 -95 -37 -15 -4 -31 -10 -37 -14 -5 -4 -39 -17 -75 -30 -36 -13 -76 -30 -90 -37 -14 -7 -33 -13 -42 -13 -9 0 -19 -4 -22 -9 -4 -5 -24 -12 -46 -16 -22 -4 -42 -11 -46 -16 -3 -5 -13 -9 -22 -9 -9 0 -29 -6 -43 -14 -14 -7 -43 -16 -65 -21 -21 -4 -43 -10 -49 -13 -5 -4 -32 -12 -60 -18 -27 -7 -99 -24 -160 -38 -182 -42 -238 -55 -275 -61 -19 -3 -75 -12 -125 -20 -416 -70 -526 -79 -965 -79 -291 0 -409 3 -525 17 -208 24 -304 37 -345 47 -33 8 -121 22 -241 39 -30 5 -71 13 -90 19 -19 6 -88 22 -154 36 -153 33 -206 46 -226 56 -9 5 -34 12 -54 16 -21 4 -50 13 -64 20 -14 8 -33 14 -42 14 -9 0 -30 7 -45 15 -16 8 -37 15 -46 15 -9 0 -20 5 -23 10 -3 6 -14 10 -23 10 -9 0 -28 6 -42 13 -14 7 -47 21 -75 31 -27 10 -63 24 -80 31 -16 7 -57 22 -90 35 -74 29 -174 73 -240 107 -97 50 -291 151 -345 180 -30 17 -71 39 -90 49 -19 11 -40 25 -48 32 -7 6 -19 12 -27 12 -7 0 -15 3 -17 8 -4 8 -65 52 -73 52 -3 0 -11 5 -18 10 -7 6 -76 52 -154 104 -77 51 -149 100 -158 109 -9 10 -20 17 -23 17 -4 0 -18 10 -32 23 -14 12 -56 47 -95 77 -277 215 -682 608 -856 830 -24 30 -46 57 -50 60 -20 16 -264 354 -314 435 -33 53 -65 102 -70 108 -16 19 -67 99 -91 142 -11 22 -36 67 -54 100 -99 182 -240 474 -280 580 -13 33 -29 74 -36 92 -8 17 -14 37 -14 45 0 8 -4 18 -8 24 -10 10 -68 165 -78 207 -3 15 -10 30 -15 33 -5 3 -9 15 -9 27 0 13 -6 31 -14 42 -7 11 -16 38 -20 60 -5 22 -11 44 -14 50 -7 10 -13 35 -56 225 -14 63 -33 143 -41 177 -8 34 -15 73 -15 87 0 14 -4 35 -10 48 -5 13 -15 57 -20 98 -6 41 -18 120 -26 175 -33 228 -47 420 -51 735 -3 201 -1 356 6 405 6 44 15 132 21 195 12 136 32 292 54 410 9 47 21 112 26 145 6 33 15 73 20 90 5 16 21 84 35 150 36 163 49 215 63 248 7 16 12 36 12 47 0 10 7 31 15 46 8 16 15 36 15 45 0 8 4 19 8 25 5 5 19 41 31 79 23 71 44 126 61 157 6 10 10 23 10 29 0 6 6 25 14 42 7 18 23 59 36 92 47 120 94 219 222 465 108 207 127 240 216 375 47 72 101 155 121 185 42 65 130 183 219 295 66 83 71 89 156 190 116 137 403 428 539 546 45 39 96 83 112 98 17 15 59 49 95 76 36 27 71 55 78 62 20 20 231 174 292 214 170 112 244 157 375 232 63 36 451 232 510 258 46 20 93 37 172 65 40 14 85 32 100 39 16 8 35 15 44 15 8 0 19 4 25 8 5 5 43 19 84 32 41 12 79 27 85 31 5 5 18 9 30 9 11 0 32 6 47 14 15 8 42 17 60 21 18 3 42 10 53 14 25 10 79 24 225 56 63 15 138 32 165 40 28 7 93 20 145 29 52 8 111 18 130 21 19 3 71 10 115 16 44 5 103 14 130 20 28 5 117 14 199 19 82 5 151 12 154 15 10 9 569 5 639 -5z"/> <path d="M6574 13454 c-12 -5 -7 -343 6 -359 5 -6 54 -9 115 -9 109 2 132 10 120 42 -3 8 -5 18 -5 22 0 5 -37 10 -82 12 -83 3 -83 3 -86 31 -5 45 14 59 70 52 53 -8 78 4 78 36 0 26 -17 33 -85 33 l-60 1 0 35 0 35 72 0 c78 0 97 9 91 46 -3 23 -6 24 -113 26 -60 1 -115 0 -121 -3z"/> <path d="M6227 13426 c-4 -9 -1 -41 5 -71 6 -33 7 -60 2 -65 -5 -4 -36 -10 -69 -12 l-60 -3 -5 60 c-6 71 -13 85 -44 85 -46 0 -51 -21 -32 -133 9 -56 17 -133 19 -172 l2 -70 44 -3 44 -3 -8 53 c-17 114 -18 112 54 122 77 10 81 6 81 -81 0 -58 2 -63 24 -69 13 -3 34 0 46 6 17 9 21 18 16 38 -8 38 -25 163 -34 252 l-7 75 -36 3 c-26 2 -38 -2 -42 -12z"/> <path d="M7401 13421 c-15 -10 -40 -166 -41 -255 -1 -140 170 -198 250 -85 15 20 30 72 46 157 22 118 22 128 7 140 -50 37 -79 -2 -86 -118 -3 -47 -12 -102 -21 -122 -15 -35 -20 -38 -56 -38 -31 0 -43 5 -56 25 -15 24 -15 33 6 150 14 76 20 129 14 134 -16 15 -48 21 -63 12z"/> <path d="M5727 13359 c-17 -10 -77 -23 -164 -35 -55 -8 -70 -25 -54 -61 10 -22 16 -25 44 -19 78 14 69 31 118 -207 15 -69 26 -81 64 -67 26 10 27 13 21 57 -3 26 -13 69 -20 97 -44 154 -43 156 8 156 51 0 84 48 54 78 -15 15 -47 15 -71 1z"/> <path d="M7922 13308 c-7 -7 -12 -27 -12 -45 0 -18 -6 -52 -13 -75 -8 -24 -24 -75 -36 -115 -29 -93 -26 -117 16 -121 29 -3 33 0 42 35 5 21 13 63 16 94 14 120 48 100 71 -41 8 -51 19 -101 24 -111 8 -14 78 -37 84 -27 1 2 10 39 20 83 10 44 24 96 31 115 47 129 48 140 30 160 -33 36 -75 19 -75 -29 -1 -41 -35 -172 -46 -174 -9 -1 -32 79 -52 187 -7 33 -17 63 -24 68 -19 12 -62 10 -76 -4z"/> <path d="M4930 13143 c-8 -3 -33 -13 -55 -23 -22 -10 -59 -26 -82 -35 -24 -10 -43 -23 -43 -28 0 -11 29 -78 55 -130 8 -16 15 -37 15 -47 0 -10 4 -21 9 -24 5 -3 16 -29 26 -58 25 -79 28 -80 93 -53 31 13 78 31 105 41 36 13 47 22 47 38 0 48 -34 57 -93 26 -20 -11 -50 -20 -66 -20 -25 0 -31 5 -36 30 -9 39 5 56 51 63 61 10 84 48 48 78 -14 11 -24 9 -66 -13 -60 -32 -88 -25 -88 22 0 30 3 31 128 66 8 3 12 16 10 36 -3 34 -23 44 -58 31z"/> <path d="M8502 13132 c-68 -21 -142 -130 -142 -212 0 -45 33 -107 72 -132 33 -22 122 -48 136 -39 14 9 30 53 25 69 -3 7 -22 12 -48 12 -32 0 -52 7 -72 24 -24 21 -28 31 -27 74 2 62 27 107 71 127 30 15 36 15 69 -1 20 -9 38 -23 41 -31 7 -18 20 -16 43 7 29 29 25 47 -18 74 -41 26 -112 39 -150 28z"/> <path d="M8916 12974 c-9 -8 -16 -21 -16 -28 0 -6 -25 -59 -55 -116 -87 -168 -88 -171 -73 -186 7 -7 24 -15 37 -16 25 -3 38 15 70 95 6 15 17 30 25 33 15 6 107 -45 113 -62 2 -6 -12 -35 -32 -64 -20 -29 -34 -58 -32 -64 3 -6 17 -18 31 -26 31 -16 59 -5 64 26 2 10 33 79 69 153 70 143 72 163 20 169 -28 3 -30 0 -66 -90 -12 -31 -50 -38 -71 -14 -6 8 -21 16 -32 18 -40 6 -43 30 -9 80 36 53 39 83 12 98 -27 14 -37 13 -55 -6z"/> <path d="M4435 12922 c-57 -20 -135 -67 -135 -81 0 -9 7 -27 15 -41 32 -57 105 -210 111 -234 8 -33 35 -49 69 -40 35 9 33 46 -6 95 -37 48 -35 73 7 77 25 2 41 -6 81 -42 28 -26 60 -46 72 -46 20 0 41 26 41 52 0 13 -73 65 -113 81 -15 6 -18 13 -13 35 18 71 17 77 -11 110 -29 34 -78 48 -118 34z m58 -83 c19 -27 11 -55 -23 -79 -27 -19 -29 -19 -48 -2 -34 29 -36 57 -6 81 34 27 59 27 77 0z"/> <path d="M6335 12741 c-71 -4 -137 -11 -145 -14 -8 -4 -53 -11 -100 -17 -47 -6 -121 -17 -165 -26 -44 -8 -105 -19 -135 -25 -30 -5 -64 -13 -75 -18 -11 -5 -42 -13 -70 -19 -82 -17 -139 -33 -150 -41 -5 -5 -27 -12 -49 -15 -21 -4 -46 -11 -55 -16 -9 -4 -47 -17 -86 -29 -134 -39 -180 -54 -190 -61 -5 -4 -32 -15 -60 -24 -64 -23 -198 -86 -205 -97 -3 -4 -18 -11 -33 -14 -15 -4 -27 -11 -27 -16 0 -5 -5 -9 -11 -9 -10 0 -210 -97 -249 -120 -8 -5 -50 -31 -94 -57 -43 -27 -88 -55 -101 -63 -13 -8 -45 -28 -72 -44 -40 -25 -183 -125 -218 -153 -5 -5 -48 -37 -95 -73 -248 -189 -542 -480 -740 -735 -30 -38 -63 -79 -72 -89 -10 -11 -30 -38 -45 -60 -15 -23 -30 -43 -33 -46 -3 -3 -27 -38 -53 -77 -26 -40 -68 -106 -94 -145 -27 -40 -52 -80 -58 -90 -42 -71 -101 -175 -104 -183 -2 -5 -45 -95 -96 -200 -90 -182 -146 -325 -195 -485 -12 -41 -26 -82 -30 -91 -5 -9 -12 -34 -16 -55 -3 -22 -10 -43 -14 -49 -4 -5 -11 -26 -14 -45 -4 -19 -11 -44 -16 -55 -5 -11 -14 -42 -20 -70 -6 -27 -18 -77 -26 -110 -65 -271 -94 -562 -94 -955 1 -418 18 -606 86 -940 9 -41 20 -86 24 -100 5 -14 12 -43 16 -65 4 -22 10 -44 14 -50 4 -5 11 -28 15 -50 4 -22 10 -44 15 -50 4 -5 11 -27 14 -49 4 -21 11 -46 16 -55 4 -9 18 -50 30 -91 51 -169 108 -307 216 -525 133 -270 163 -324 231 -425 27 -41 75 -113 105 -160 49 -75 159 -219 266 -350 152 -183 324 -358 518 -525 108 -94 123 -106 164 -135 19 -13 37 -27 40 -30 11 -13 130 -99 195 -141 103 -67 128 -83 147 -94 9 -5 73 -45 143 -88 69 -42 128 -77 131 -77 3 0 38 -16 78 -35 40 -19 78 -35 85 -35 6 0 11 -4 11 -9 0 -5 12 -12 27 -16 15 -3 30 -10 33 -14 16 -24 290 -134 450 -181 41 -12 82 -26 91 -30 9 -5 34 -12 55 -15 22 -4 48 -10 59 -15 20 -9 49 -18 155 -46 101 -27 175 -45 205 -50 17 -3 68 -11 115 -19 258 -44 384 -53 750 -53 365 0 583 14 740 49 25 5 74 13 110 18 81 12 160 29 180 40 9 5 36 12 60 16 25 4 50 11 55 15 6 4 28 11 50 15 22 4 45 10 50 15 6 4 29 10 53 14 24 3 51 11 60 16 9 5 58 21 107 35 81 24 185 61 240 85 11 5 41 18 67 29 26 12 52 21 57 21 6 0 11 4 11 9 0 5 12 12 27 16 15 3 30 10 33 13 5 7 15 12 175 87 118 55 330 180 365 215 9 9 45 30 70 41 13 5 27 13 30 17 3 4 32 25 65 47 55 36 189 139 305 233 210 172 466 438 660 687 30 39 58 75 63 80 103 129 307 455 381 610 27 55 75 154 107 220 63 129 107 241 158 400 17 55 36 108 41 117 5 9 13 36 16 60 4 24 10 48 14 53 4 6 11 26 14 45 4 19 11 44 16 55 5 11 14 43 20 70 6 28 18 79 26 115 67 290 93 554 93 950 0 396 -25 654 -93 950 -8 36 -20 88 -26 115 -6 28 -15 57 -19 65 -5 9 -12 35 -16 58 -4 23 -11 44 -16 48 -5 3 -9 14 -9 26 0 11 -23 88 -50 172 -88 265 -84 255 -270 641 -30 61 -77 148 -105 195 -106 173 -253 396 -278 422 -7 7 -39 47 -71 88 -139 180 -455 514 -596 631 -36 30 -67 57 -70 60 -3 3 -81 63 -175 133 -93 69 -176 131 -182 136 -7 6 -23 15 -35 20 -24 10 -59 31 -68 40 -30 30 -227 146 -345 202 -131 63 -190 93 -195 99 -3 4 -16 10 -30 14 -14 4 -27 10 -30 14 -8 9 -70 41 -82 41 -5 0 -24 6 -41 14 -84 38 -131 55 -267 96 -41 12 -84 26 -95 31 -11 5 -38 13 -60 18 -65 16 -129 36 -140 42 -5 4 -30 10 -55 13 -25 4 -54 11 -65 16 -11 5 -47 14 -80 20 -33 6 -94 17 -135 25 -41 8 -113 19 -160 25 -47 6 -101 15 -120 21 -44 12 -759 20 -935 10z m700 -61 c121 -4 243 -13 270 -19 57 -12 256 -41 330 -47 47 -5 76 -11 204 -48 29 -9 62 -16 72 -16 10 0 20 -4 23 -9 4 -5 25 -12 49 -16 23 -4 47 -11 52 -15 6 -4 25 -11 43 -15 18 -4 45 -13 60 -21 15 -8 33 -14 40 -14 7 0 20 -4 30 -9 9 -5 76 -30 147 -56 139 -50 167 -62 285 -120 152 -75 258 -132 366 -198 62 -37 117 -67 123 -67 6 0 11 -3 11 -8 0 -4 20 -18 45 -32 25 -14 45 -27 45 -30 0 -3 17 -16 38 -30 20 -14 42 -29 47 -33 6 -4 51 -37 100 -73 83 -60 141 -104 169 -129 6 -5 47 -41 91 -80 169 -148 263 -245 477 -486 71 -79 68 -76 183 -234 52 -71 98 -134 102 -140 5 -5 20 -28 33 -50 13 -22 28 -41 32 -43 4 -2 8 -8 8 -14 0 -5 35 -69 78 -142 43 -72 94 -162 113 -201 19 -38 36 -72 39 -75 19 -19 108 -228 165 -390 21 -58 44 -119 51 -137 8 -17 14 -38 14 -46 0 -9 5 -19 10 -22 6 -3 10 -14 10 -23 0 -9 6 -29 13 -43 8 -14 17 -45 21 -69 4 -24 10 -48 14 -54 4 -6 12 -33 19 -61 6 -27 18 -79 27 -115 21 -88 44 -222 61 -358 8 -62 18 -118 21 -124 6 -9 28 -430 27 -528 0 -160 -16 -449 -28 -525 -8 -49 -19 -126 -25 -170 -16 -122 -38 -243 -56 -315 -9 -36 -21 -88 -28 -117 -6 -28 -15 -55 -19 -59 -3 -4 -10 -29 -13 -56 -4 -27 -11 -51 -15 -54 -5 -3 -9 -13 -9 -22 0 -9 -7 -30 -15 -46 -8 -15 -15 -33 -15 -38 0 -6 -6 -24 -14 -41 -7 -18 -30 -79 -51 -137 -50 -141 -112 -293 -135 -330 -5 -8 -33 -62 -62 -120 -28 -58 -83 -156 -120 -218 -37 -62 -68 -117 -68 -122 0 -5 -6 -15 -13 -22 -7 -7 -24 -31 -37 -53 -13 -22 -28 -44 -32 -50 -5 -5 -59 -78 -121 -162 -61 -83 -137 -180 -167 -214 -189 -217 -306 -335 -475 -484 -44 -38 -89 -78 -100 -88 -22 -21 -47 -40 -120 -94 -27 -21 -54 -41 -60 -45 -108 -83 -232 -167 -315 -214 -36 -21 -101 -58 -145 -85 -130 -76 -406 -211 -500 -244 -27 -9 -59 -21 -70 -26 -11 -5 -38 -15 -60 -22 -131 -46 -171 -60 -180 -67 -5 -4 -26 -11 -45 -14 -19 -4 -44 -11 -55 -16 -11 -4 -40 -13 -65 -20 -25 -6 -70 -18 -100 -26 -192 -52 -292 -72 -409 -85 -58 -6 -124 -15 -146 -20 -40 -10 -443 -33 -565 -33 -112 0 -528 21 -537 27 -6 4 -71 13 -145 22 -127 15 -191 26 -328 61 -30 7 -77 18 -105 24 -27 6 -57 15 -65 19 -9 5 -31 12 -50 16 -50 10 -130 35 -167 51 -17 8 -36 14 -42 14 -6 0 -19 4 -29 9 -9 5 -75 31 -147 56 -71 26 -150 56 -175 67 -88 38 -296 144 -366 185 -39 24 -74 43 -77 43 -12 0 -214 125 -267 165 -30 23 -86 63 -125 90 -38 26 -72 51 -75 54 -3 4 -17 14 -33 24 -34 22 -159 129 -292 251 -137 126 -184 174 -330 341 -39 44 -85 97 -104 117 -19 21 -45 55 -59 75 -14 21 -31 43 -36 49 -6 6 -18 22 -26 34 -8 12 -46 66 -85 119 -85 119 -87 121 -225 361 -81 140 -200 386 -235 485 -10 28 -24 64 -31 82 -8 17 -14 35 -14 41 0 5 -7 23 -15 38 -8 16 -15 37 -15 46 0 9 -4 20 -10 23 -6 3 -10 14 -10 23 0 9 -7 30 -15 46 -8 15 -15 33 -15 40 0 6 -6 23 -13 37 -8 14 -17 45 -21 69 -4 24 -10 48 -14 54 -4 6 -12 34 -19 61 -6 28 -18 79 -27 115 -19 79 -52 263 -61 345 -3 33 -12 96 -20 140 -13 76 -29 370 -29 540 0 121 20 521 27 532 3 5 13 65 22 134 18 142 37 256 61 349 9 36 21 88 27 115 7 28 15 55 18 60 4 6 10 26 14 45 7 39 30 109 51 157 8 17 14 35 14 41 0 5 7 23 15 38 8 16 15 37 15 46 0 9 5 20 10 23 6 3 10 13 10 22 0 8 6 29 14 46 7 18 21 55 31 82 37 105 151 342 222 461 24 39 43 74 43 77 0 14 130 220 195 309 38 54 95 132 125 174 30 42 69 91 85 108 17 18 61 68 100 112 115 130 166 184 250 265 145 139 309 280 400 344 90 63 229 165 252 185 7 5 14 10 17 10 3 0 25 14 49 30 25 17 48 30 52 30 4 0 55 28 114 63 58 35 124 72 146 83 22 10 42 21 45 24 7 7 183 93 240 118 25 11 122 47 215 82 94 34 179 66 190 70 54 22 112 40 125 40 8 0 27 6 41 14 14 7 47 16 72 20 26 4 49 11 52 17 4 5 20 9 36 9 17 0 40 5 52 12 12 7 51 15 87 19 91 8 295 37 355 50 28 6 155 15 283 19 129 5 237 12 240 15 4 4 32 4 62 0 30 -3 154 -10 275 -15z"/> <path d="M9450 12640 c-25 -22 -89 -69 -142 -105 -54 -36 -100 -70 -104 -76 -8 -13 23 -59 40 -59 7 0 30 14 51 30 l38 30 51 -29 c41 -24 52 -36 54 -60 2 -17 -1 -39 -7 -49 -12 -23 3 -47 36 -56 30 -9 38 10 57 129 8 55 22 131 30 170 15 68 15 70 -6 92 -30 32 -46 29 -98 -17z m25 -122 c-4 -24 -10 -47 -15 -51 -12 -13 -60 15 -60 36 0 22 37 56 63 57 16 0 18 -5 12 -42z"/> <path d="M3933 12649 c-54 -26 -103 -98 -103 -149 0 -54 47 -139 98 -177 78 -59 169 -41 246 46 26 28 33 115 14 161 -33 78 -113 140 -180 140 -18 0 -52 -9 -75 -21z m136 -87 c37 -32 61 -94 52 -131 -8 -27 -63 -71 -90 -71 -24 0 -78 36 -96 64 -9 14 -19 43 -22 64 -4 31 0 44 22 70 36 43 88 44 134 4z"/> <path d="M9853 12415 c-51 -73 -134 -180 -167 -215 -41 -45 -44 -60 -17 -84 28 -26 52 -13 84 44 22 39 34 50 52 50 38 0 43 -41 16 -118 -21 -61 -21 -65 -5 -83 42 -47 84 -12 84 71 0 65 15 90 56 90 32 0 84 56 84 90 0 14 -8 37 -18 53 -23 34 -88 93 -124 113 -25 13 -28 12 -45 -11z m88 -115 c28 -37 16 -70 -25 -70 -32 0 -76 23 -76 41 0 5 7 21 16 35 21 32 60 29 85 -6z"/> <path d="M3437 12299 l-27 -21 22 -28 c13 -15 51 -61 84 -102 34 -41 74 -94 89 -117 31 -46 53 -51 81 -20 10 12 47 41 82 66 34 25 62 49 62 53 0 5 -10 21 -23 36 l-23 27 -52 -47 c-29 -25 -59 -46 -67 -46 -8 0 -52 50 -97 110 -46 61 -87 110 -93 110 -5 0 -22 -10 -38 -21z"/> <path d="M10208 12119 c-24 -26 -23 -35 12 -61 53 -39 49 -48 -60 -156 -55 -54 -100 -103 -100 -109 0 -13 44 -43 64 -43 8 0 24 12 36 27 20 25 63 76 134 158 l26 30 30 -32 c36 -40 76 -44 89 -10 8 19 -4 34 -93 119 -55 53 -105 97 -111 97 -5 -1 -18 -9 -27 -20z"/> <path d="M3180 12058 c-52 -33 -121 -100 -118 -114 2 -7 48 -59 103 -116 55 -57 107 -114 116 -127 12 -19 21 -23 40 -18 14 4 30 17 36 29 9 20 5 28 -35 65 l-45 42 32 37 c71 80 64 152 -21 207 -36 23 -66 21 -108 -5z m90 -78 c24 -24 25 -34 3 -71 -25 -42 -42 -44 -80 -7 -40 39 -41 50 -7 77 33 26 58 27 84 1z"/> <path d="M10505 11693 c-49 -47 -107 -97 -127 -110 -49 -33 -49 -58 2 -105 22 -21 52 -56 66 -78 29 -43 57 -51 74 -21 17 33 12 48 -35 92 -25 23 -45 47 -45 54 0 28 80 75 80 48 0 -5 15 -26 34 -48 32 -38 35 -39 60 -26 14 8 26 20 26 26 0 6 -20 31 -46 54 -42 40 -44 45 -31 65 24 35 57 27 95 -24 19 -25 40 -48 47 -52 16 -10 55 19 55 40 -1 17 -143 172 -157 172 -4 -1 -48 -39 -98 -87z"/> <path d="M2844 11735 c-3 -8 4 -39 16 -69 27 -65 22 -91 -18 -82 -15 3 -48 9 -74 12 -44 6 -47 5 -53 -19 -4 -14 -4 -35 0 -46 6 -19 14 -21 94 -21 l87 0 17 -91 c8 -51 20 -96 26 -102 13 -13 71 10 71 28 0 11 -29 101 -45 137 -12 28 19 32 95 12 84 -21 95 -15 91 54 -1 21 -5 22 -95 22 l-94 0 -11 30 c-5 17 -13 57 -17 90 l-7 60 -39 0 c-25 0 -41 -5 -44 -15z"/> <path d="M10765 11309 c-71 -54 -134 -100 -140 -102 -16 -6 15 -55 70 -113 77 -81 148 -89 236 -28 51 35 72 61 89 114 12 36 12 47 -2 84 -22 59 -86 146 -106 145 -10 -1 -75 -46 -147 -100z m151 -7 c17 -11 34 -48 34 -74 0 -53 -80 -128 -137 -128 -20 0 -93 56 -93 70 0 9 168 140 179 140 3 0 11 -4 17 -8z"/> <path d="M2494 11295 c-32 -47 -61 -85 -66 -85 -23 0 -3 -29 39 -56 26 -16 90 -62 142 -101 53 -40 101 -73 108 -73 7 0 26 21 44 48 18 26 44 61 59 77 37 41 42 60 20 80 -28 26 -56 10 -92 -51 -18 -30 -38 -54 -45 -54 -6 0 -25 11 -40 24 -30 27 -31 25 20 89 24 30 27 39 17 57 -15 27 -51 23 -66 -8 -24 -49 -52 -72 -76 -63 -38 14 -34 47 11 96 48 52 52 81 15 95 -14 6 -27 10 -30 10 -2 0 -29 -38 -60 -85z"/> <path d="M10481 5086 c-31 -33 -26 -47 29 -86 50 -35 60 -56 38 -78 -18 -18 -43 -15 -106 14 -68 31 -102 23 -102 -25 0 -28 4 -32 52 -46 28 -8 61 -15 72 -15 33 0 43 -12 49 -60 8 -61 53 -91 113 -76 38 10 144 114 144 141 0 14 -15 32 -42 53 -24 17 -77 65 -118 107 -96 97 -102 100 -129 71z m174 -211 c31 -30 31 -36 1 -64 -16 -15 -33 -21 -52 -19 -24 2 -29 8 -32 35 -2 22 3 38 17 52 27 27 37 26 66 -4z"/> <path d="M3075 5062 c-16 -11 -36 -26 -44 -36 -20 -24 -16 -84 9 -139 24 -53 19 -87 -11 -87 -24 0 -69 46 -69 70 0 40 -62 53 -84 18 -13 -22 4 -55 62 -113 40 -41 48 -45 92 -45 42 0 52 4 74 31 31 37 33 71 6 139 -11 28 -20 59 -20 70 0 21 30 34 58 26 21 -7 52 -56 52 -84 0 -29 22 -42 56 -33 41 10 42 40 3 99 -34 52 -99 102 -134 102 -11 0 -33 -8 -50 -18z"/> <path d="M3401 4771 c-6 -11 -14 -42 -18 -68 -8 -66 -19 -83 -52 -83 -36 0 -74 -30 -91 -71 -11 -27 -11 -35 5 -62 26 -47 117 -137 136 -137 10 0 28 15 40 33 13 17 61 72 108 120 106 108 114 122 80 148 -13 10 -27 19 -32 19 -4 0 -26 -25 -50 -55 -44 -58 -57 -64 -77 -40 -15 18 -9 62 16 128 14 36 16 51 8 65 -16 26 -60 28 -73 3z m3 -232 c14 -11 26 -25 26 -30 0 -13 -46 -59 -60 -59 -16 0 -60 47 -60 64 0 20 28 46 49 46 10 0 30 -9 45 -21z"/> <path d="M10125 4720 c-22 -22 -56 -52 -77 -67 -39 -27 -49 -58 -26 -81 21 -21 44 -13 87 33 46 49 69 55 94 27 27 -30 20 -50 -28 -84 -45 -32 -55 -54 -33 -76 22 -22 42 -13 83 34 l41 47 28 -24 c34 -30 29 -44 -34 -94 -48 -38 -58 -58 -42 -81 20 -30 43 -23 95 29 28 29 65 62 80 75 16 13 27 29 25 37 -2 7 -39 51 -83 97 -44 46 -95 102 -113 126 -19 23 -39 42 -46 42 -6 0 -30 -18 -51 -40z"/> <path d="M3760 4458 c-11 -18 -20 -45 -20 -59 0 -26 -7 -52 -51 -199 -11 -36 -19 -70 -19 -76 0 -11 42 -54 53 -54 3 0 46 26 94 59 49 32 117 74 153 94 54 29 65 40 68 64 2 20 -3 32 -18 41 -19 11 -25 9 -56 -18 -19 -16 -40 -30 -47 -30 -7 0 -32 17 -57 39 l-45 39 13 48 c12 46 12 49 -10 66 -31 24 -35 23 -58 -14z m84 -200 c15 -21 14 -24 -12 -45 -38 -32 -68 -27 -64 12 1 17 5 36 7 43 7 20 53 14 69 -10z"/> <path d="M9826 4471 c-16 -18 -16 -22 -2 -50 9 -16 16 -37 16 -45 0 -14 -93 -96 -109 -96 -4 0 -20 14 -36 30 -35 37 -68 39 -83 5 -16 -36 -7 -51 51 -80 60 -29 64 -32 169 -102 43 -29 84 -53 91 -53 7 0 23 7 36 16 24 17 25 37 3 99 -13 37 -36 123 -50 190 -6 28 -13 62 -16 78 -8 33 -44 37 -70 8z m43 -195 c18 -22 26 -86 11 -86 -21 0 -80 41 -80 55 0 13 36 45 51 45 4 0 12 -6 18 -14z"/> <path d="M4278 4139 c-15 -8 -96 -146 -125 -211 -14 -33 -39 -36 -69 -7 -33 31 -74 19 -74 -20 0 -24 7 -33 43 -50 24 -12 73 -41 110 -66 37 -25 71 -45 76 -45 14 0 41 36 41 54 0 11 -15 23 -40 33 -25 10 -40 22 -40 34 0 17 117 201 132 207 5 2 8 16 8 31 0 32 -36 55 -62 40z"/> <path d="M9283 4103 c-61 -44 -71 -81 -28 -101 22 -10 29 -8 64 28 47 47 77 51 121 14 65 -55 80 -136 34 -179 -14 -13 -40 -25 -57 -27 -28 -3 -32 -7 -35 -35 -7 -67 67 -64 141 6 84 77 75 191 -23 286 -36 35 -46 39 -102 43 -60 4 -66 2 -115 -35z"/> <path d="M8978 3949 c-25 -14 -22 -35 12 -86 42 -62 39 -74 -24 -105 -52 -26 -55 -26 -70 -9 -10 10 -21 34 -26 53 -16 58 -34 74 -67 63 -35 -13 -41 -45 -16 -82 18 -26 62 -116 101 -203 26 -60 28 -63 45 -74 12 -8 21 -5 36 8 29 26 26 47 -10 101 -17 26 -28 50 -23 55 5 4 30 19 55 33 55 30 74 23 89 -32 6 -22 18 -49 28 -61 18 -22 19 -22 45 -5 30 19 33 38 12 75 -25 44 -71 143 -96 205 -31 77 -48 89 -91 64z"/> <path d="M4588 3924 c-31 -16 -58 -61 -58 -94 0 -25 28 -69 79 -123 32 -34 34 -38 19 -53 -22 -22 -68 -11 -103 26 -35 36 -45 37 -74 6 l-22 -24 43 -35 c96 -77 147 -86 202 -33 54 50 50 88 -14 163 -54 63 -61 86 -31 103 27 14 64 -2 92 -39 25 -34 68 -42 88 -17 26 31 -30 93 -111 122 -51 18 -75 17 -110 -2z"/> <path d="M5288 3654 c-11 -23 -10 -29 11 -45 13 -11 34 -19 46 -19 30 0 77 -18 86 -32 8 -12 -8 -65 -22 -73 -4 -3 -32 4 -60 16 -38 17 -56 20 -68 12 -39 -25 -12 -73 40 -73 42 0 69 -17 69 -43 -1 -52 -18 -56 -109 -22 -56 20 -81 13 -81 -25 0 -26 5 -30 53 -44 28 -9 75 -24 104 -33 61 -19 78 -11 88 40 8 44 33 129 62 210 14 37 23 73 20 80 -3 7 -42 24 -86 37 -45 13 -84 27 -87 32 -12 19 -55 7 -66 -18z"/> <path d="M8202 3639 c-34 -13 -37 -35 -13 -93 11 -28 21 -56 21 -63 0 -6 -26 -17 -57 -25 -54 -13 -58 -16 -61 -46 -3 -30 -1 -32 28 -32 17 0 44 7 60 15 35 18 56 11 65 -22 8 -34 -7 -49 -61 -57 -80 -11 -103 -37 -70 -81 13 -18 15 -18 72 3 33 12 77 25 99 30 36 7 40 11 43 42 2 18 -3 49 -12 69 -12 30 -40 137 -61 237 -6 27 -23 34 -53 23z"/> <path d="M5750 3541 c-5 -11 -10 -32 -10 -47 0 -39 -19 -137 -41 -213 -22 -74 -14 -101 29 -101 40 0 52 17 52 77 0 65 10 71 85 54 61 -14 71 -29 49 -72 -8 -17 -14 -45 -12 -62 2 -27 8 -33 31 -35 43 -5 54 11 60 91 6 63 33 191 52 238 9 23 -22 51 -54 47 -23 -3 -27 -9 -34 -53 -14 -89 -20 -100 -47 -97 -72 9 -101 15 -105 23 -3 4 2 37 12 73 14 53 15 67 4 80 -18 22 -58 20 -71 -3z"/> <path d="M7642 3515 c-79 -25 -122 -87 -122 -178 0 -189 220 -270 320 -119 40 61 47 102 25 160 -45 118 -126 168 -223 137z m114 -101 c30 -31 34 -42 34 -88 0 -62 -24 -101 -69 -111 -66 -14 -121 48 -121 135 0 33 6 48 29 71 42 42 84 40 127 -7z"/> <path d="M6332 3457 c-7 -8 -13 -69 -14 -148 l-3 -134 -56 2 c-54 3 -57 2 -63 -23 -10 -40 7 -51 92 -58 42 -3 102 -9 134 -12 50 -6 57 -4 67 15 19 34 -2 61 -47 61 -53 0 -64 11 -58 51 3 19 12 77 21 130 8 53 13 104 9 113 -8 20 -67 22 -82 3z"/> <path d="M7215 3460 c-3 -5 -3 -43 1 -85 6 -70 5 -75 -12 -75 -34 0 -60 27 -88 89 -29 65 -51 76 -92 47 -19 -14 -19 -15 0 -48 11 -18 32 -49 48 -69 15 -20 28 -40 28 -44 0 -4 -11 -20 -25 -37 -41 -48 -29 -109 26 -141 22 -12 53 -17 109 -17 99 0 105 7 96 98 -3 37 -9 108 -12 157 -7 130 -9 135 -44 135 -16 0 -32 -4 -35 -10z m4 -224 c17 -20 10 -77 -10 -89 -12 -7 -26 -7 -47 2 -51 21 -52 59 -3 86 33 18 46 18 60 1z"/> </g> </svg>